<?xml version="1.0" encoding="UTF-8" standalone="no"?>
<svg
   xmlns:dc="http://purl.org/dc/elements/1.1/"
   xmlns:cc="http://creativecommons.org/ns#"
   xmlns:rdf="http://www.w3.org/1999/02/22-rdf-syntax-ns#"
   xmlns:svg="http://www.w3.org/2000/svg"
   xmlns="http://www.w3.org/2000/svg"
   xmlns:sodipodi="http://sodipodi.sourceforge.net/DTD/sodipodi-0.dtd"
   xmlns:inkscape="http://www.inkscape.org/namespaces/inkscape"
   version="1.1"
   id="Layer_1"
   x="0px"
   y="0px"
   width="64"
   height="64"
   viewBox="0 0 64 64.000001"
   enable-background="new 0 0 116.333 122.88"
   xml:space="preserve"
   sodipodi:docname="iconoBandera.svg"
   inkscape:version="1.0.2 (e86c870879, 2021-01-15)"><metadata
     id="metadata11"><rdf:RDF><cc:Work
         rdf:about=""><dc:format>image/svg+xml</dc:format><dc:type
           rdf:resource="http://purl.org/dc/dcmitype/StillImage" /><dc:title></dc:title></cc:Work></rdf:RDF></metadata><defs
     id="defs9" /><sodipodi:namedview
     pagecolor="#ffffff"
     bordercolor="#666666"
     borderopacity="1"
     objecttolerance="10"
     gridtolerance="10"
     guidetolerance="10"
     inkscape:pageopacity="0"
     inkscape:pageshadow="2"
     inkscape:window-width="1529"
     inkscape:window-height="871"
     id="namedview7"
     showgrid="false"
     inkscape:zoom="2.5827168"
     inkscape:cx="30.371947"
     inkscape:cy="44.40368"
     inkscape:window-x="26"
     inkscape:window-y="23"
     inkscape:window-maximized="0"
     inkscape:current-layer="Layer_1" /><g
     id="g4"
     transform="matrix(0.40690088,0,0,0.40690088,8.332,7.0002134)"><path
       fill-rule="evenodd"
       clip-rule="evenodd"
       d="m 20.416,17.743 c 46.635,-32.238 50.118,31.566 95.917,-8.271 v 65.01 C 72.652,113.761 63.229,50.297 20.416,82.55 Z M 8.898,0 c 4.915,0 8.899,3.986 8.899,8.898 0,3.263 -1.758,6.114 -4.375,7.663 h 0.42 v 7.624 74.512 7.624 h -0.42 c 2.617,1.549 4.375,3.574 4.375,7.662 0,4.087 -3.984,8.896 -8.899,8.896 -4.914,0 -8.898,-4.81 -8.898,-8.896 0,-4.088 1.757,-6.113 4.374,-7.662 H 3.955 V 98.697 24.185 16.561 H 4.374 C 1.757,15.012 0,12.162 0,8.898 0,3.986 3.984,0 8.898,0 Z"
       id="path2" /></g></svg>
