<?xml version="1.0" encoding="UTF-8" standalone="no"?>
<svg
   xmlns:dc="http://purl.org/dc/elements/1.1/"
   xmlns:cc="http://creativecommons.org/ns#"
   xmlns:rdf="http://www.w3.org/1999/02/22-rdf-syntax-ns#"
   xmlns:svg="http://www.w3.org/2000/svg"
   xmlns="http://www.w3.org/2000/svg"
   xmlns:sodipodi="http://sodipodi.sourceforge.net/DTD/sodipodi-0.dtd"
   xmlns:inkscape="http://www.inkscape.org/namespaces/inkscape"
   width="64"
   height="64"
   viewBox="0 0 16.933333 16.933333"
   version="1.1"
   id="svg846"
   inkscape:version="1.0.2 (e86c870879, 2021-01-15)"
   sodipodi:docname="correcto.svg"
   inkscape:export-filename="/home/julio/git/github/fpdistancia/JavaSwing/src/main/resources/capitales/ico/correcto.png"
   inkscape:export-xdpi="48.000004"
   inkscape:export-ydpi="48.000004">
  <defs
     id="defs840" />
  <sodipodi:namedview
     id="base"
     pagecolor="#ffffff"
     bordercolor="#666666"
     borderopacity="1.0"
     inkscape:pageopacity="0.0"
     inkscape:pageshadow="2"
     inkscape:zoom="6.690102"
     inkscape:cx="28.967123"
     inkscape:cy="50.898571"
     inkscape:document-units="mm"
     inkscape:current-layer="layer1"
     inkscape:document-rotation="0"
     showgrid="false"
     units="px"
     inkscape:window-width="1920"
     inkscape:window-height="1016"
     inkscape:window-x="0"
     inkscape:window-y="0"
     inkscape:window-maximized="1" />
  <metadata
     id="metadata843">
    <rdf:RDF>
      <cc:Work
         rdf:about="">
        <dc:format>image/svg+xml</dc:format>
        <dc:type
           rdf:resource="http://purl.org/dc/dcmitype/StillImage" />
        <dc:title></dc:title>
      </cc:Work>
    </rdf:RDF>
  </metadata>
  <g
     inkscape:label="Capa 1"
     inkscape:groupmode="layer"
     id="layer1">
    <path
       class="st1"
       d="M 8.4666672,1.7633333e-7 C 13.143238,1.7633333e-7 16.933333,3.7900962 16.933333,8.4666671 c 0,4.6765709 -3.790095,8.4666659 -8.4666658,8.4666659 C 3.7900964,16.933333 2.3333333e-7,13.143238 2.3333333e-7,8.4666671 2.3333333e-7,3.7900962 3.7900964,1.7633333e-7 8.4666672,1.7633333e-7 Z M 4.7200583,8.6907951 C 4.833794,8.0317935 5.5864615,7.6671676 6.1785596,8.0217571 c 0.053522,0.033459 0.1037005,0.070246 0.1538785,0.1137408 l 0.00335,0.00333 c 0.2676183,0.2542328 0.5653401,0.5218476 0.8597164,0.7827717 l 0.2542343,0.227474 3.0106682,-3.1578574 c 0.177294,-0.1839834 0.311101,-0.3044109 0.578716,-0.3646234 0.923271,-0.2040576 1.572238,0.9232705 0.916581,1.6157236 L 8.209096,11.176256 C 7.8545032,11.554218 7.2256081,11.587669 6.8442569,11.226393 6.6268146,11.025734 6.3893063,10.818333 6.1517981,10.610931 5.736995,10.249651 5.3155015,9.8816803 4.9709473,9.5204003 4.7602005,9.3163452 4.6732257,8.9751356 4.7200583,8.6907951 Z"
       id="path6"
       style="clip-rule:evenodd;fill:#6bbe66;fill-rule:evenodd;stroke-width:0.334518" />
  </g>
</svg>
