<?xml version="1.0" encoding="UTF-8" standalone="no"?>
<svg
   xmlns:dc="http://purl.org/dc/elements/1.1/"
   xmlns:cc="http://creativecommons.org/ns#"
   xmlns:rdf="http://www.w3.org/1999/02/22-rdf-syntax-ns#"
   xmlns:svg="http://www.w3.org/2000/svg"
   xmlns="http://www.w3.org/2000/svg"
   xmlns:sodipodi="http://sodipodi.sourceforge.net/DTD/sodipodi-0.dtd"
   xmlns:inkscape="http://www.inkscape.org/namespaces/inkscape"
   version="1.1"
   id="Layer_1"
   x="0px"
   y="0px"
   width="241.5"
   height="283.98401"
   viewBox="0 0 241.5 283.98401"
   enable-background="new 0 0 300 300"
   xml:space="preserve"
   sodipodi:docname="school-learn-study-student-svgrepo-com.svg"
   inkscape:version="1.0.2 (e86c870879, 2021-01-15)"><metadata
   id="metadata9"><rdf:RDF><cc:Work
       rdf:about=""><dc:format>image/svg+xml</dc:format><dc:type
         rdf:resource="http://purl.org/dc/dcmitype/StillImage" /><dc:title></dc:title></cc:Work></rdf:RDF></metadata><defs
   id="defs7" /><sodipodi:namedview
   pagecolor="#ffffff"
   bordercolor="#666666"
   borderopacity="1"
   objecttolerance="10"
   gridtolerance="10"
   guidetolerance="10"
   inkscape:pageopacity="0"
   inkscape:pageshadow="2"
   inkscape:window-width="1920"
   inkscape:window-height="1016"
   id="namedview5"
   showgrid="false"
   fit-margin-top="0"
   fit-margin-left="0"
   fit-margin-right="0"
   fit-margin-bottom="0"
   inkscape:zoom="2.8533333"
   inkscape:cx="120"
   inkscape:cy="158.00314"
   inkscape:window-x="0"
   inkscape:window-y="27"
   inkscape:window-maximized="1"
   inkscape:current-layer="Layer_1" />
<path
   d="M 59.398,30.601 C 59.398,13.693 73.112,0 90.004,0 c 16.9,0 30.609,13.696 30.609,30.601 0,16.891 -13.709,30.631 -30.609,30.631 -16.891,0 -30.606,-13.739 -30.606,-30.631 z M 216,83.88 V 283.984 H 0 v -152 h 12 v 76 h 73 v 12 H 12 v 52 h 104.064 l -0.064,-73 H 52 c -22,0 -31.928,-16.618 -30.148,-32.766 l 8.86,-78.583 c 1.78,-16.147 16.319,-27.791 32.461,-26.015 9.309,1.026 16.898,6.18 21.91,13.28 3.049,4.319 12.956,16.95 12.956,16.95 l 34.363,-18.481 -1.41,-2.639 c -0.937,-1.754 -0.276,-3.936 1.479,-4.874 1.754,-0.935 3.936,-0.276 4.874,1.479 l 1.408,2.634 c 6.385,-3.275 14.24,-0.859 17.654,5.487 3.424,6.366 1.084,14.285 -5.213,17.788 l 4.99,9.336 79.605,-43.052 5.711,10.561 z m -12,188.104 v -118 h -69 v -26.298 l -22.037,11.918 -5.711,-10.561 42.595,-23.036 -4.993,-9.342 -44.037,23.683 c -1.978,1.066 -4.124,1.578 -6.248,1.578 -2.943,0 -5.844,-0.984 -8.199,-2.846 l -5.627,49.904 h 45.507 c 10.908,0 19.75,8.842 19.75,19.75 v 83.25 z"
   id="path2" />
</svg>
