<?xml version="1.0" encoding="UTF-8" standalone="no"?>
<svg
   xmlns:dc="http://purl.org/dc/elements/1.1/"
   xmlns:cc="http://creativecommons.org/ns#"
   xmlns:rdf="http://www.w3.org/1999/02/22-rdf-syntax-ns#"
   xmlns:svg="http://www.w3.org/2000/svg"
   xmlns="http://www.w3.org/2000/svg"
   xmlns:sodipodi="http://sodipodi.sourceforge.net/DTD/sodipodi-0.dtd"
   xmlns:inkscape="http://www.inkscape.org/namespaces/inkscape"
   version="1.1"
   id="Layer_1"
   x="0px"
   y="0px"
   viewBox="0 0 64.000001 64.000001"
   xml:space="preserve"
   sodipodi:docname="sgte1.svg"
   width="64"
   height="64"
   inkscape:version="1.0.2 (e86c870879, 2021-01-15)"
   inkscape:export-filename="/home/julio/git/github/fpdistancia/JavaSwing/src/main/resources/capitales/ico/sgte1.png"
   inkscape:export-xdpi="96"
   inkscape:export-ydpi="96"><metadata
     id="metadata11"><rdf:RDF><cc:Work
         rdf:about=""><dc:format>image/svg+xml</dc:format><dc:type
           rdf:resource="http://purl.org/dc/dcmitype/StillImage" /><dc:title></dc:title></cc:Work></rdf:RDF></metadata><defs
     id="defs9" /><sodipodi:namedview
     pagecolor="#ffffff"
     bordercolor="#666666"
     borderopacity="1"
     objecttolerance="10"
     gridtolerance="10"
     guidetolerance="10"
     inkscape:pageopacity="0"
     inkscape:pageshadow="2"
     inkscape:window-width="1280"
     inkscape:window-height="987"
     id="namedview7"
     showgrid="false"
     inkscape:zoom="2.2618578"
     inkscape:cx="14.883403"
     inkscape:cy="87.658086"
     inkscape:window-x="0"
     inkscape:window-y="0"
     inkscape:window-maximized="1"
     inkscape:current-layer="Layer_1" /><g
     id="g4"
     transform="matrix(0.40690104,0,0,0.40690104,7.0000001,7.0000001)"><path
       d="M 37.95,4.66 C 45.19,1.66 53.13,0 61.44,0 c 16.96,0 32.33,6.88 43.44,18 5.66,5.66 10.22,12.43 13.34,19.95 3,7.24 4.66,15.18 4.66,23.49 0,16.96 -6.88,32.33 -18,43.44 -5.66,5.66 -12.43,10.22 -19.95,13.34 -7.24,3 -15.18,4.66 -23.49,4.66 -8.31,0 -16.25,-1.66 -23.49,-4.66 C 30.42,115.1 23.66,110.54 18,104.88 12.34,99.22 7.77,92.46 4.66,84.93 1.66,77.69 0,69.75 0,61.44 0,53.13 1.66,45.19 4.66,37.95 7.77,30.42 12.34,23.66 18,18 23.65,12.34 30.42,7.77 37.95,4.66 Z m 5.16,63.1 c -3.54,-0.03 -6.38,-2.92 -6.35,-6.46 0.03,-3.54 2.92,-6.38 6.46,-6.35 l 21.63,0.13 -7.82,-7.95 c -2.48,-2.52 -2.45,-6.58 0.07,-9.05 2.52,-2.48 6.57,-2.45 9.05,0.08 l 18.67,18.97 c 2.45,2.5 2.45,6.49 0,8.98 l -18.3,18.61 c -2.48,2.52 -6.53,2.55 -9.05,0.08 -2.52,-2.48 -2.55,-6.53 -0.08,-9.05 L 65.12,67.9 Z M 42.86,16.55 c -5.93,2.46 -11.28,6.07 -15.76,10.55 -4.48,4.48 -8.09,9.83 -10.55,15.76 -2.37,5.71 -3.67,11.99 -3.67,18.58 0,6.59 1.31,12.86 3.67,18.58 2.46,5.93 6.07,11.28 10.55,15.76 4.48,4.48 9.83,8.09 15.76,10.55 5.72,2.37 11.99,3.67 18.58,3.67 6.59,0 12.86,-1.31 18.58,-3.67 5.93,-2.46 11.28,-6.07 15.76,-10.55 4.48,-4.48 8.09,-9.82 10.55,-15.76 C 108.7,74.31 110,68.03 110,61.44 110,54.85 108.69,48.58 106.33,42.86 103.87,36.93 100.26,31.58 95.78,27.1 91.3,22.62 85.95,19.01 80.02,16.55 74.31,14.18 68.03,12.88 61.44,12.88 c -6.59,0 -12.86,1.31 -18.58,3.67 z"
       id="path2" /></g></svg>
