<?xml version="1.0" encoding="UTF-8" standalone="no"?>
<svg
   xmlns:dc="http://purl.org/dc/elements/1.1/"
   xmlns:cc="http://creativecommons.org/ns#"
   xmlns:rdf="http://www.w3.org/1999/02/22-rdf-syntax-ns#"
   xmlns:svg="http://www.w3.org/2000/svg"
   xmlns="http://www.w3.org/2000/svg"
   xmlns:sodipodi="http://sodipodi.sourceforge.net/DTD/sodipodi-0.dtd"
   xmlns:inkscape="http://www.inkscape.org/namespaces/inkscape"
   shape-rendering="geometricPrecision"
   text-rendering="geometricPrecision"
   image-rendering="optimizeQuality"
   fill-rule="evenodd"
   clip-rule="evenodd"
   viewBox="0 0 64 64"
   version="1.1"
   id="svg8"
   sodipodi:docname="sgte.svg"
   width="64"
   height="64"
   inkscape:version="1.0.2 (e86c870879, 2021-01-15)">
  <metadata
     id="metadata14">
    <rdf:RDF>
      <cc:Work
         rdf:about="">
        <dc:format>image/svg+xml</dc:format>
        <dc:type
           rdf:resource="http://purl.org/dc/dcmitype/StillImage" />
        <dc:title></dc:title>
      </cc:Work>
    </rdf:RDF>
  </metadata>
  <defs
     id="defs12" />
  <sodipodi:namedview
     pagecolor="#ffffff"
     bordercolor="#666666"
     borderopacity="1"
     objecttolerance="10"
     gridtolerance="10"
     guidetolerance="10"
     inkscape:pageopacity="0"
     inkscape:pageshadow="2"
     inkscape:window-width="1570"
     inkscape:window-height="831"
     id="namedview10"
     showgrid="false"
     inkscape:zoom="2.3272972"
     inkscape:cx="-29.478814"
     inkscape:cy="-27.919988"
     inkscape:window-x="26"
     inkscape:window-y="23"
     inkscape:window-maximized="0"
     inkscape:current-layer="svg8" />
  <g
     fill-rule="nonzero"
     id="g6"
     transform="matrix(0.09765625,0,0,0.09765625,7,7)">
    <path
       d="M 231.12,156.92 A 9.779,9.779 0 0 0 217.2,156.8 c -3.87,3.85 -3.92,10.15 -0.11,14.06 l 83.71,86.31 -83.63,83.89 c -3.85,3.87 -3.87,10.16 -0.04,14.05 a 9.77,9.77 0 0 0 13.92,0.05 l 90.56,-90.85 c 3.83,-3.85 3.87,-10.12 0.07,-14.02 z"
       id="path2" />
    <path
       d="M 512,256 C 512,185.31 483.34,121.3 437.02,74.98 390.69,28.66 326.69,0 256,0 185.31,0 121.3,28.66 74.98,74.98 28.66,121.3 0,185.31 0,256 0,326.69 28.65,390.7 74.98,437.02 121.3,483.34 185.31,512 256,512 326.69,512 390.69,483.34 437.02,437.02 483.34,390.7 512,326.69 512,256 Z M 422.92,89.08 c 42.71,42.72 69.14,101.73 69.14,166.92 0,65.18 -26.42,124.2 -69.14,166.92 C 380.2,465.63 321.18,492.06 256,492.06 190.81,492.06 131.79,465.64 89.08,422.92 46.36,380.21 19.94,321.19 19.94,256 19.94,190.81 46.37,131.8 89.08,89.08 131.79,46.36 190.81,19.94 256,19.94 c 65.18,0 124.2,26.43 166.92,69.14 z"
       id="path4" />
  </g>
</svg>
