<?xml version="1.0" encoding="UTF-8" standalone="no"?>
<svg
   xmlns:dc="http://purl.org/dc/elements/1.1/"
   xmlns:cc="http://creativecommons.org/ns#"
   xmlns:rdf="http://www.w3.org/1999/02/22-rdf-syntax-ns#"
   xmlns:svg="http://www.w3.org/2000/svg"
   xmlns="http://www.w3.org/2000/svg"
   xmlns:sodipodi="http://sodipodi.sourceforge.net/DTD/sodipodi-0.dtd"
   xmlns:inkscape="http://www.inkscape.org/namespaces/inkscape"
   version="1.0"
   width="700"
   height="700"
   viewBox="0 0 525 525"
   preserveAspectRatio="xMidYMid meet"
   id="svg1395"
   sodipodi:docname="america.svg"
   inkscape:version="1.0.2 (e86c870879, 2021-01-15)">
  <defs
     id="defs1399" />
  <sodipodi:namedview
     id="namedview1397"
     pagecolor="#ffffff"
     bordercolor="#666666"
     borderopacity="1.0"
     inkscape:pageshadow="2"
     inkscape:pageopacity="0.0"
     inkscape:pagecheckerboard="0"
     inkscape:document-units="pt"
     showgrid="false"
     fit-margin-top="0"
     fit-margin-left="0"
     fit-margin-right="0"
     fit-margin-bottom="0"
     inkscape:zoom="0.59694047"
     inkscape:cx="298.67471"
     inkscape:cy="424.13682"
     inkscape:window-width="1920"
     inkscape:window-height="1016"
     inkscape:window-x="0"
     inkscape:window-y="0"
     inkscape:window-maximized="1"
     inkscape:current-layer="svg1395"
     inkscape:document-rotation="0"
     units="px" />
  <metadata
     id="metadata705">
Created by potrace 1.15, written by Peter Selinger 2001-2017
<rdf:RDF>
  <cc:Work
     rdf:about="">
    <dc:format>image/svg+xml</dc:format>
    <dc:type
       rdf:resource="http://purl.org/dc/dcmitype/StillImage" />
    <dc:title></dc:title>
  </cc:Work>
</rdf:RDF>
</metadata>
  <g
     id="g3266"
     transform="matrix(0.76368597,0,0,0.76368597,79.225501,-4.23416)">
    <path
       d="m 317.6,6.4 c -3.9,1.2 -7.6,4.7 -7.6,7.2 0,1 -1.5,1.4 -5.4,1.4 -3.9,0 -5.5,0.4 -6,1.5 -0.3,0.9 -1.9,1.5 -4.3,1.6 -4.6,0 -14.9,2.1 -16,3.2 -1.1,1.1 1.7,2.7 4.8,2.7 1.7,0 3.3,0.9 4.3,2.5 2.3,3.6 6.1,5.2 8.1,3.5 1.2,-1 2.6,-1 7.3,0.5 10.4,3.1 11.2,3.6 4.9,3 -6.8,-0.6 -10,0.7 -9.5,3.8 0.4,2.7 8.9,7.6 13.3,7.7 2.6,0.1 2.7,0.3 1,1 -1.8,0.8 -5.5,0.6 -11.2,-0.6 -2.1,-0.4 -3.5,-2.2 -6.8,-9.2 -0.8,-1.7 -2,-3.2 -2.7,-3.2 -0.6,0 -4.2,-1.4 -7.9,-3.1 -7.1,-3.3 -9.7,-3.3 -10.6,0 -0.3,1.1 -1.4,2.1 -2.6,2.3 -1.1,0.2 -2.9,1.6 -4.1,3.1 l -2.1,2.8 2.5,1.9 c 1.4,1.1 4.3,2.3 6.5,2.8 3.9,0.9 3.9,0.9 1.3,1.7 -3.5,0.9 -3.5,1.3 0.1,5.3 3.9,4.1 9.1,4.4 14.6,0.6 4.6,-3.1 7.2,-1.8 3.7,1.9 -1.2,1.3 -2.2,2.7 -2.2,3.2 0,0.5 -0.9,1.9 -2.1,3.1 l -2.1,2.2 2.1,1.2 c 1.2,0.6 6.9,1.5 12.9,2 5.9,0.5 12.5,1.2 14.7,1.5 3.1,0.4 4.9,0 8,-1.8 4.8,-2.7 5.2,-5 1,-5.7 -3,-0.5 -2.9,-0.6 2.2,-2.8 2.8,-1.2 5.6,-2.2 6.1,-2.2 1.4,0 5.2,-4.5 5.2,-6.3 0,-1.1 -1.1,-1.7 -3.7,-1.9 l -3.8,-0.3 4.3,-1.3 c 2.6,-0.8 4.2,-1.9 4.2,-2.8 0,-1.1 0.5,-1.4 1.8,-0.9 5.2,2.1 7.7,1.7 14.2,-2.2 3.6,-2.1 9.5,-5.4 13.3,-7.2 3.7,-1.9 6.7,-3.8 6.7,-4.2 0,-0.4 -1,-1.1 -2.1,-1.4 -1.8,-0.6 -0.9,-1.3 5,-4.1 3.9,-1.9 7.1,-4.1 7.1,-4.9 0,-0.8 -2,-2.6 -4.5,-4.1 -4.6,-2.6 -5.5,-2.7 -12.9,-0.8 -2.1,0.5 -2.5,0.3 -2,-1 C 367,8.5 366.4,7.7 364.4,7 360.3,5.4 322.4,5 317.6,6.4 Z"
       id="path709"
       style="fill:#000000;stroke:none;stroke-width:0.1" />
    <path
       d="m 250.5,36.9 c -0.6,1 2.1,4.1 3.6,4.1 1.3,0 1.1,-2.4 -0.3,-3.8 -1.4,-1.4 -2.5,-1.5 -3.3,-0.3 z"
       id="path747"
       style="fill:#000000;stroke:none;stroke-width:0.1" />
    <path
       d="m 231.5,40.4 c -2,1.4 -1.9,1.5 0.9,4.5 1.9,2 4,3.1 5.7,3.1 2.9,0 4.6,1.4 2.9,2.5 -1.5,0.9 -1.2,2.5 0.4,2.5 0.8,0 1.6,-0.7 1.8,-1.6 0.2,-1.4 0.8,-1.2 3.6,1.1 5.3,4.4 8.4,1.3 4.3,-4.4 -2.2,-3 -9.9,-7.5 -14.6,-8.5 -2,-0.4 -3.7,-0.1 -5,0.8 z"
       id="path749"
       style="fill:#000000;stroke:none;stroke-width:0.1" />
    <path
       d="m 205.2,47.8 c -0.7,0.5 -1,1.6 -0.6,2.5 1.1,3 -0.5,3.8 -3.7,2 -2.6,-1.5 -3.1,-1.6 -3.9,-0.3 -1.1,1.7 0.7,4.3 2.6,3.6 0.7,-0.3 2.5,0.4 3.9,1.6 3.1,2.4 4.9,1.8 11.3,-3.8 3.2,-2.7 3.5,-3.3 2.3,-4.8 -1.4,-1.7 -9.5,-2.3 -11.9,-0.8 z"
       id="path759"
       style="fill:#000000;stroke:none;stroke-width:0.1" />
    <path
       d="m 258,49.3 c 0,1.8 3.2,4.7 5.2,4.7 0.9,0 2.2,-0.7 2.9,-1.6 1.1,-1.4 1,-1.8 -0.6,-3 -2.4,-1.8 -7.5,-1.8 -7.5,-0.1 z"
       id="path761"
       style="fill:#000000;stroke:none;stroke-width:0.1" />
    <path
       d="m 230.2,55.2 c 0.6,1.8 2.8,2.1 2.8,0.4 0,-0.9 -0.7,-1.6 -1.6,-1.6 -0.9,0 -1.4,0.5 -1.2,1.2 z"
       id="path773"
       style="fill:#000000;stroke:none;stroke-width:0.1" />
    <path
       d="m 184.7,57.2 c -6,2.1 -14.4,8.8 -13.3,10.7 0.4,0.6 2.8,0.9 5.4,0.8 4,-0.2 4.9,-0.6 6.8,-3.5 1.3,-1.8 2.5,-2.8 2.9,-2.2 1,1.6 2.2,1.2 5,-1.7 2.9,-3.2 3.3,-6.4 0.8,-6.2 -1,0.1 -4.4,1 -7.6,2.1 z"
       id="path777"
       style="fill:#000000;stroke:none;stroke-width:0.1" />
    <path
       d="m 267.7,56.9 c -0.2,1.1 -1.5,2.1 -2.8,2.3 -1.5,0.2 -2.5,1.1 -2.7,2.4 -0.3,2.4 3,4.1 8.7,4.6 2,0.2 3.7,1 4.2,2 0.5,1 1.3,2.6 1.8,3.5 0.4,1 2.1,2.1 3.7,2.4 1.6,0.4 5,1.2 7.7,1.8 5.1,1.2 22.5,1.4 29.7,0.3 3.8,-0.6 4.6,-1.1 4.8,-3.2 0.2,-1.4 0.8,-3 1.4,-3.7 1.7,-2 0,-3.5 -2.5,-2.1 -1.4,0.7 -8.4,1.4 -18.3,1.6 -17.5,0.5 -16.3,0.7 -21.1,-5.1 -0.6,-0.8 -3.4,-1.7 -6.2,-2.1 -5.5,-0.7 -6.8,-1.7 -4.6,-3.6 0.8,-0.7 1.2,-1.6 0.9,-2.1 -1,-1.6 -4.2,-0.9 -4.7,1 z"
       id="path779"
       style="fill:#000000;stroke:none;stroke-width:0.1" />
    <path
       d="m 284,56.5 c 0,0.8 0.7,1.5 1.5,1.5 0.8,0 1.5,-0.7 1.5,-1.5 0,-0.8 -0.7,-1.5 -1.5,-1.5 -0.8,0 -1.5,0.7 -1.5,1.5 z"
       id="path781"
       style="fill:#000000;stroke:none;stroke-width:0.1" />
    <path
       d="m 200,59.5 c 0,0.8 0.7,1.5 1.5,1.5 0.8,0 1.5,-0.7 1.5,-1.5 0,-0.8 -0.7,-1.5 -1.5,-1.5 -0.8,0 -1.5,0.7 -1.5,1.5 z"
       id="path789"
       style="fill:#000000;stroke:none;stroke-width:0.1" />
    <path
       d="m 349,59.5 c 0,0.8 0.7,1.5 1.5,1.5 0.8,0 1.5,-0.7 1.5,-1.5 0,-0.8 -0.7,-1.5 -1.5,-1.5 -0.8,0 -1.5,0.7 -1.5,1.5 z"
       id="path791"
       style="fill:#000000;stroke:none;stroke-width:0.1" />
    <path
       d="m 217.6,62.6 c -0.3,0.9 -0.6,2.4 -0.6,3.5 0,3 -2.4,3.3 -7.7,0.9 -2.6,-1.2 -7.1,-2.4 -10,-2.7 -4.9,-0.5 -5.3,-0.4 -6.4,1.9 -0.8,1.9 -0.8,3.1 0,4.7 1.1,1.9 1.8,2.1 6.4,1.6 2.9,-0.3 4.5,-0.2 3.7,0.1 -3.2,1.4 -4.1,2.6 -2.9,4 1.6,1.9 5.5,1.7 13,-0.5 3.5,-1.1 8.3,-2.2 10.6,-2.6 5.1,-0.8 8.2,-3.7 6.3,-6 -0.7,-0.8 -2.1,-1.5 -3.2,-1.5 -1.1,0 -2.9,-1.1 -4,-2.5 -2.2,-2.9 -4.3,-3.2 -5.2,-0.9 z"
       id="path799"
       style="fill:#000000;stroke:none;stroke-width:0.1" />
    <path
       d="m 243.1,62.4 c -1.6,1.9 -0.3,4.4 4,8 4.9,4.1 9.9,3.1 9.9,-2.1 0,-3.8 -4.3,-7.3 -8.8,-7.3 -2.2,0 -4.5,0.6 -5.1,1.4 z"
       id="path801"
       style="fill:#000000;stroke:none;stroke-width:0.1" />
    <path
       d="m 236.5,63 c -0.8,1.3 0.4,3.2 1.6,2.5 1.2,-0.8 1.2,-3.5 0,-3.5 -0.6,0 -1.3,0.4 -1.6,1 z"
       id="path805"
       style="fill:#000000;stroke:none;stroke-width:0.1" />
    <path
       d="m 184.6,66.7 c -1.2,1.2 -0.6,3.3 0.9,3.3 0.8,0 1.5,-0.6 1.5,-1.4 0,-1.7 -1.4,-2.8 -2.4,-1.9 z"
       id="path813"
       style="fill:#000000;stroke:none;stroke-width:0.1" />
    <path
       d="m 259.5,67 c -0.7,1.2 0.2,3 1.6,3 1.2,0 1.2,-2.7 0,-3.5 -0.5,-0.3 -1.2,-0.1 -1.6,0.5 z"
       id="path815"
       style="fill:#000000;stroke:none;stroke-width:0.1" />
    <path
       d="m 239,68.5 c 0,1.8 2.4,3 4,2 0.8,-0.5 0.8,-1.1 -0.1,-2.1 -1.5,-1.9 -3.9,-1.8 -3.9,0.1 z"
       id="path817"
       style="fill:#000000;stroke:none;stroke-width:0.1" />
    <path
       d="m 264.5,69.4 c -2.3,1.6 -1.4,4.2 1.9,5.7 4.7,2.2 8.3,-1.5 5.1,-5.1 -2.1,-2.3 -4.4,-2.5 -7,-0.6 z"
       id="path819"
       style="fill:#000000;stroke:none;stroke-width:0.1" />
    <path
       d="m 233.5,70 c -0.7,1.2 0.2,3 1.6,3 1.2,0 1.2,-2.7 0,-3.5 -0.5,-0.3 -1.2,-0.1 -1.6,0.5 z"
       id="path825"
       style="fill:#000000;stroke:none;stroke-width:0.1" />
    <path
       d="m 170.1,76.7 c -1.4,1.1 -2.4,3.3 -2.8,6 -0.4,3 -1.1,4.4 -2.9,5.2 -3.2,1.4 -3,2.5 0.9,5 1.7,1.1 4,2.6 4.9,3.3 1.4,1 2.6,0.7 7,-1.6 2.9,-1.6 6,-3.7 6.9,-4.7 1.5,-1.6 1.8,-1.7 2.3,-0.3 0.3,0.9 0.6,2.4 0.6,3.5 0,4.1 3.4,5.9 11.8,6 8.3,0 7.6,1.7 -0.8,1.8 -5.7,0.1 -9.2,1.1 -8.8,2.3 0.2,0.6 2.4,1.8 4.9,2.7 2.5,1 5.9,2.8 7.6,4.1 2.9,2.1 3.5,2.2 9.5,1.1 8.5,-1.5 9.6,-1.4 7.3,0.3 -1.7,1.2 -1.7,1.4 -0.2,3.7 1.8,2.5 2.4,9.4 0.7,8.4 -0.5,-0.3 -1,-1.5 -1,-2.5 0,-3.4 -5.5,-5.4 -14.2,-5.2 -4.3,0 -7.8,-0.2 -7.8,-0.5 0,-0.4 0.7,-1.4 1.6,-2.4 1.4,-1.5 1.3,-1.9 -1.2,-3.8 -2.9,-2.3 -4.6,-2.6 -7.2,-1.2 -1.2,0.6 -3.5,0.1 -7.7,-1.7 -4.5,-1.9 -8,-2.7 -14,-2.9 -4.4,-0.1 -9.8,-0.5 -12,-0.8 -3.4,-0.5 -4.8,-0.1 -9.5,2.9 -6.5,4.3 -8.4,4.6 -4.4,0.8 l 2.9,-2.7 -2.7,-0.3 c -1.4,-0.2 -4.5,0.6 -6.7,1.8 -2.6,1.3 -5,1.8 -6.6,1.4 -2.9,-0.7 -3,-0.3 -1,5.1 1.7,4.8 1.8,6.5 0.5,6.5 -0.5,0 -1,-1.2 -1,-2.8 0,-4.2 -1,-5 -9.5,-7.7 -12.5,-4.1 -19.3,-5.6 -29.1,-6.6 -5,-0.4 -10.2,-1.2 -11.5,-1.7 -1.4,-0.6 -3.4,-0.6 -4.8,-0.1 -1.7,0.7 -3.1,0.5 -5,-0.8 -2.9,-1.9 -8.8,-3.3 -14.2,-3.5 -3.6,-0.2 -6.8,0.8 -14.5,4.3 -2.2,1.1 -4.5,1.9 -5.1,1.9 -0.5,0 -1.8,1 -2.9,2.1 -1,1.2 -4.1,3.2 -6.9,4.5 -2.7,1.2 -5.8,2.9 -6.9,3.6 -1.7,1.4 -1.6,1.7 2.7,5.4 4.3,3.8 8.9,6.6 13.1,7.9 1.5,0.4 1.7,0.8 0.8,1.7 -0.9,0.9 -2.4,0.9 -6.1,-0.1 -5.4,-1.4 -10.6,-0.3 -14.4,2.8 -1.7,1.4 -1.7,1.6 0.3,3.5 1.2,1.2 2.7,3 3.4,4 1.9,2.8 12.9,3.6 15.6,1.1 2.7,-2.4 3.8,-1 1.9,2.3 -0.9,1.7 -3.2,3.3 -6.4,4.5 -5.8,2.1 -8.4,5 -8.5,9.2 0,4 5.3,10.5 8.5,10.5 1.3,0 3,0.6 3.7,1.4 2.8,2.7 8.1,4.8 12.5,4.8 4,0 4.3,0.1 3.7,2.1 -1.1,3.7 -4.6,6.7 -12.6,10.9 -4.3,2.2 -7.8,4.4 -7.8,4.9 0,1.6 3.2,2.3 5.1,1.1 2.6,-1.7 3.6,-1.5 4.2,0.8 0.6,2.2 1.5,2.5 3.7,1 1.3,-0.9 1.3,-1.2 -0.3,-2.4 -2,-1.6 -1.8,-1.8 6.5,-6.5 6.7,-3.8 16.4,-12.3 17.3,-15.2 1,-3.2 6.5,-10.9 7.7,-10.9 0.6,0 0.4,0.8 -0.5,1.8 -1,1 -1.7,3.1 -1.7,4.7 0,2.7 0.1,2.7 4.3,2 2.3,-0.4 5.7,-0.7 7.5,-0.7 2.1,0 3.2,-0.4 3.2,-1.4 0,-0.8 -0.7,-1.4 -1.5,-1.4 -0.8,0 -1.5,-0.9 -1.5,-2 0,-1.3 0.7,-2 2,-2 1.1,0 2,0.4 2,0.8 0,1.5 7.1,4.1 16.5,6.1 5,1.1 11.7,3.1 14.9,4.6 3.3,1.4 6.8,2.4 7.8,2.1 1.4,-0.3 2.5,0.5 3.9,2.7 2.9,4.8 2.3,8.7 -0.8,5.6 -1.1,-1.1 -3.3,-0.5 -3.3,0.9 0,1.1 6.1,3.3 7.1,2.6 0.5,-0.3 0.9,-1.2 0.9,-1.9 0,-1 1,-0.8 3.6,1 2,1.4 4.1,2.5 4.5,2.5 1.5,0 1,2.2 -0.8,3.6 -2.4,1.7 -1,2.9 1.6,1.4 1.9,-1 2.1,-0.8 2.1,1.9 0,1.6 -0.5,3.3 -1,3.6 -0.6,0.4 -0.8,1.1 -0.4,1.6 0.3,0.5 0,1.6 -0.6,2.4 -0.6,0.8 -0.9,1.9 -0.5,2.5 1,1.7 2.5,1.1 2.5,-1 0,-2.2 0.7,-2.5 3,-1 1.2,0.8 1.3,1.3 0.3,3 -2.1,3.3 -1.6,4.1 2.2,3.4 3.4,-0.6 4.4,0.2 2.6,2.1 -0.5,0.6 -1.2,2.4 -1.5,4.1 -0.6,2.7 -0.2,3.5 3.1,6.4 6.5,5.8 15.5,8.6 13.9,4.4 -1,-2.5 1,-1.5 2.2,1.1 1.9,4.2 1.6,5.8 -0.9,4.4 -1.2,-0.6 -2.5,-0.7 -3,-0.2 -1.3,1.3 -3,32.5 -2,36 1.3,4.6 4,9.2 6.1,10.6 1.1,0.6 2,2.1 2,3.3 0,3.6 7.1,13.1 12.6,16.9 3,2.1 5.7,4.8 6.3,6.6 0.6,1.6 1.6,4.3 2.3,6 0.6,1.7 2.2,4.7 3.5,6.6 1.5,2.2 2.1,4.2 1.7,5.5 -0.4,1.4 0.3,2.9 2.4,5.2 1.7,1.7 4,5.2 5.1,7.8 1.9,4.4 7.8,9.8 10.8,9.8 2.2,0 2.5,-2.1 0.6,-4.3 -5.5,-6.3 -17.9,-30.5 -16.4,-32 0.7,-0.7 1.6,0 2.8,2.3 1,1.8 3.6,5.9 5.8,9.2 2.2,3.3 5.3,8 6.8,10.6 1.6,2.5 4.8,7.1 7.2,10.1 5,6.4 6.6,10 5.8,13 -0.9,3.4 5.9,9 18.8,15.5 10.8,5.4 12.7,6 18.9,5.5 1.5,-0.1 5.6,1.7 10,4.4 4.1,2.5 10.1,5.5 13.2,6.7 6.1,2.3 9.8,6.5 9.8,11.2 0,3.1 2.4,5.5 3.6,3.7 0.5,-0.9 1.3,-0.5 2.8,1.4 1.2,1.4 4.5,3.4 7.8,4.4 5.7,2 5.7,2 7.8,-0.1 1.6,-1.6 2.4,-1.8 3.8,-1 2.6,1.7 4.4,8.2 4,14.6 -0.4,4.7 -1.1,6.7 -4.6,11.7 -6.4,9.1 -9.1,18.8 -6,21.9 0.9,0.9 0.8,1.6 -0.5,3 -2.1,2.3 -2.1,4.4 -0.1,8.4 0.9,1.7 4.2,10 7.4,18.5 3.2,8.4 6.5,16.4 7.4,17.8 0.8,1.3 5.8,5.9 11,10.2 l 9.5,7.8 -0.6,8.5 c -0.3,4.7 -1.3,19.4 -2.3,32.6 -1.7,23.2 -1.9,24.4 -5.1,31.5 -3.9,8.9 -5,20.9 -3.3,36.2 0.6,5.7 0.5,5.9 -1.5,5.2 -2.3,-0.7 -2.9,0.9 -0.8,2.2 1.7,1 3,6 1.8,6.7 -0.5,0.3 -1.4,-0.1 -2.1,-0.9 -1.8,-2.2 -2.6,-1.9 -4,1.4 -1.3,3.1 -0.7,5.1 1.4,5.1 1.2,0 6.6,5 6.6,6.2 0,0.3 -0.9,0.8 -2,1.1 -1.7,0.4 -2,1.4 -2,6.7 0,5.5 -0.2,6.1 -1.5,5 -1.1,-0.9 -1.9,-1 -2.7,-0.2 -1.4,1.4 0,3.5 1.9,2.8 1.1,-0.4 1.3,-0.1 0.8,1.4 -0.5,1.7 -0.1,2.1 2.4,2.6 3.3,0.7 7.6,4.7 7.6,7.1 0,2.5 2.1,2.7 4.4,0.4 1.6,-1.6 2,-1.7 2.5,-0.4 1.3,3.2 0.6,4.3 -2.5,4.3 -4.8,0 -3.4,3.2 2.1,4.8 2.5,0.8 5.5,1.8 6.6,2.4 2.4,1.1 7.4,-0.7 8.2,-3 0.7,-2.2 -9.4,-11.2 -12.5,-11.2 l -2.8,-0.1 2.2,-1.8 c 1.2,-1 2.6,-3.6 3.2,-5.8 0.6,-2.2 2,-4.8 3.1,-5.8 1.1,-1 2,-2.4 2,-3 0,-0.7 1.6,-3.2 3.5,-5.6 4.2,-5.2 4.3,-6.6 1,-7.9 -1.4,-0.5 -3,-2.2 -3.6,-3.7 -0.9,-2.4 -0.7,-3 1.3,-4.5 4.8,-3.5 5.8,-4.9 5.8,-7.8 0,-2 0.7,-3.3 2.3,-4.1 1.2,-0.6 2.4,-1.3 2.6,-1.5 0.2,-0.2 -0.8,-1.7 -2.3,-3.4 -3.4,-4.1 -3.3,-4.8 0.9,-4.7 3.8,0.1 7.5,-2.5 7.5,-5.4 0,-2.3 1.9,-3.2 9.2,-4.8 10,-2.1 13.1,-6.8 9.3,-14.1 l -1.5,-2.8 h 4.5 c 3.3,0.1 5.3,-0.5 7.9,-2.5 3.8,-3 10.8,-13.6 15.5,-23.7 2.8,-5.9 3,-6.9 1.9,-10.3 -1.1,-3.6 -1,-3.9 1.8,-6.2 1.6,-1.4 4.8,-3.4 7.1,-4.5 2.3,-1.2 4.7,-2.7 5.3,-3.5 0.7,-0.8 2.8,-1.7 4.9,-2 6.8,-1.1 8.1,-2.2 11.7,-9.9 3.1,-6.5 3.7,-9.1 4.9,-21.1 1.3,-12.5 1.6,-13.8 4.2,-16.8 6.3,-7.2 9.7,-13.8 10.1,-19.7 0.4,-5.6 0.4,-5.8 -3.3,-8.6 -2.1,-1.6 -5.3,-4.3 -7.1,-6 -2.8,-2.8 -4.2,-3.3 -10.6,-3.9 -8.1,-0.8 -9.1,-1.2 -15.5,-6.1 -5.2,-4 -8.4,-4.3 -11,-1.1 -1.8,2.3 -5.3,4.7 -6.9,4.7 -0.5,0 0.7,-1.3 2.6,-2.8 5.5,-4.7 1.9,-9.4 -4,-5.2 -1.7,1.2 -3.4,1.9 -3.7,1.6 -0.8,-0.8 3.7,-5.6 6,-6.5 1.7,-0.7 1.7,-0.8 -0.2,-3.3 -1.2,-1.4 -2.1,-3.5 -2.1,-4.6 0,-5.5 -10.7,-14.2 -17.4,-14.2 -1.5,0 -3.7,-0.5 -4.9,-1.1 -3.1,-1.6 -16.7,-15.1 -16.7,-16.6 0,-0.7 -2,-1.8 -4.5,-2.4 -2.5,-0.6 -4.5,-1.5 -4.5,-2 0,-0.5 -0.7,-0.9 -1.5,-0.9 -1.3,0 -1.4,0.4 -0.5,2 0.9,1.7 0.8,2 -1.3,2 -1.4,0 -3,-0.7 -3.7,-1.5 -0.7,-0.8 -2.5,-1.5 -4,-1.5 -1.6,0 -4.2,-1.2 -6.1,-2.7 -2.1,-1.8 -3.4,-2.3 -3.7,-1.5 -0.7,2.3 -4,5.7 -4.8,4.9 -0.4,-0.4 -0.2,-1.3 0.4,-1.9 1.6,-1.6 1.5,-3.8 -0.2,-3.8 -0.7,0 -3,1.4 -5.1,3 -2.1,1.7 -4.4,2.9 -5.1,2.6 -1.7,-0.6 -5.4,4 -6.1,7.6 -0.7,3.4 -0.8,3.4 -4.5,0.3 -3.3,-2.8 -3.8,-2.9 -9.1,-1.4 -4.9,1.3 -6.8,0.6 -9.1,-3.2 -1.6,-2.7 -1.8,-4.5 -1.3,-12.1 l 0.6,-8.9 -2.7,-1.1 c -1.5,-0.7 -5.6,-1.4 -9.2,-1.7 -6.2,-0.6 -6.5,-0.7 -6.1,-3.1 0.1,-1.4 0.9,-3.7 1.7,-5.1 0.7,-1.5 1.6,-5.7 2,-9.4 l 0.7,-6.8 -5.9,0.7 c -6.6,0.8 -9.4,2.7 -9.4,6.5 0,4.4 -1.4,5.4 -7.9,5.9 -5.8,0.4 -6.2,0.3 -9.1,-2.8 -5.7,-6.1 -6.6,-12.5 -4.5,-31.3 0.7,-7 5.7,-10.3 14.2,-9.3 2.9,0.3 7.8,0.9 10.8,1.2 l 5.5,0.7 -0.2,-3.4 -0.3,-3.4 7.5,0.3 c 9.3,0.4 11.4,2.1 13.1,10 1.4,7 6.7,13.4 9.3,11.3 2.1,-1.8 2,-3.9 -0.9,-15.1 -1.4,-5.2 -2.5,-10.3 -2.5,-11.3 0,-1 3,-5 6.6,-9 11.8,-12.8 11.6,-12.5 11.7,-16.5 0,-2 -0.3,-5.5 -0.7,-7.7 -0.5,-3.1 -0.4,-3.5 0.3,-1.8 1.7,3.7 3.4,2.6 6.6,-4 2.9,-6 3.2,-6.3 8.8,-8 l 5.8,-1.9 -0.6,-3.9 c -0.8,-4.5 1.3,-8.9 4.3,-8.9 0.9,0 4.1,-1.1 7,-2.5 6.8,-3.2 7.9,-3.1 5.3,0.1 -4.1,5.3 -1.8,7.8 3.7,4.1 2,-1.3 5.8,-3.6 8.5,-5.1 2.6,-1.5 4.7,-3.2 4.7,-3.7 0,-0.6 0.7,-0.9 1.5,-0.6 1.9,0.8 2.8,-0.8 2,-3.3 -0.9,-2.7 -3.1,-2.5 -6.7,0.5 -3.6,3.1 -4.6,3.1 -5,0.2 -0.2,-1.7 -0.9,-2.1 -2.6,-1.9 -1.3,0.2 -3.2,-0.4 -4.3,-1.4 -2.3,-2 -2.4,-3.4 -0.4,-3.4 2.2,0 3.9,-3.8 2.4,-5.6 -2.4,-2.9 -12.1,-0.3 -16.3,4.5 -1.1,1.1 -2.4,2.1 -3,2.1 -1.8,0 5.7,-7.1 9.7,-9.1 2.1,-1.1 7.5,-2.5 12,-3 11,-1.4 20.3,-3.5 24.6,-5.7 3.3,-1.5 3.6,-2.1 3.9,-6.3 0.5,-7.7 -2.4,-9.1 -12.7,-6.2 -1.7,0.4 -2.2,0.3 -1.7,-0.5 0.4,-0.6 2.2,-1.4 4.1,-1.8 6.2,-1.1 6.3,-3 0.3,-6.1 -2.9,-1.5 -6.1,-3.1 -7.1,-3.5 -0.9,-0.4 -2.3,-2 -2.9,-3.5 -0.7,-1.5 -2.2,-4.1 -3.5,-5.6 -1.2,-1.5 -2.8,-4.7 -3.4,-7 -2.2,-7.6 -4,-8.4 -8.9,-3.8 -3.6,3.2 -10.4,4.9 -12.6,3 -1.6,-1.3 -1.9,-6 -0.4,-7.5 1.6,-1.6 0.1,-4.3 -3.4,-6 -1.7,-0.9 -4.5,-2.9 -6.2,-4.6 -2.9,-2.7 -3.5,-2.9 -10.4,-2.6 -6.6,0.3 -7.5,0.6 -9.3,3 -1.5,2 -2.1,4.4 -2.2,9.5 -0.1,3.7 -0.7,7.7 -1.2,8.8 -0.9,1.6 -0.6,2.8 1.3,6 2.9,4.9 3,8.4 0.3,13.7 -1.2,2.3 -2.4,7.3 -2.9,12 -0.9,9.7 -1.8,10.8 -5.9,7.9 -5.6,-4 -7.1,-6.8 -7.1,-13.2 0,-5.6 -0.1,-5.9 -2.7,-6.4 -7.4,-1.5 -13.4,-3.8 -19.3,-7.5 -3.6,-2.2 -7.3,-4 -8.2,-4 -1.2,0 -1.8,-0.8 -1.8,-2.3 0,-3.5 -2.3,-6 -5.6,-6.1 -2.4,-0.1 -3,-0.6 -3.2,-2.8 -0.4,-3.7 5.3,-14.3 9.4,-17.5 1.8,-1.3 3.4,-3.4 3.6,-4.6 0.2,-1.7 1.2,-2.3 4.3,-2.7 4.4,-0.6 9,-3.3 9.9,-5.6 0.4,-1.1 -0.3,-1.9 -2.4,-2.7 -4,-1.5 -3.8,-2.4 0.5,-1.9 3.2,0.4 3.5,0.7 3.5,3.7 0,1.8 -0.9,4.4 -2.1,5.8 l -2,2.7 3.3,2 c 4.3,2.6 5.6,2.5 8.9,-0.6 2.5,-2.4 3,-2.5 6.2,-1.3 3.8,1.3 6.7,0.7 6.7,-1.4 0,-2.3 -6.5,-7.7 -11.6,-9.5 -5.6,-2 -6.4,-4.3 -1.8,-5.2 3.6,-0.8 11.4,-5 11.4,-6.2 0,-0.5 -0.7,-2.2 -1.5,-3.8 -0.9,-1.7 -1.3,-4 -1,-5.3 0.7,-2.5 -0.9,-4.3 -6,-7.1 -2.9,-1.5 -2.8,-1.5 4.5,-1 8.2,0.6 28,6.2 28,7.9 0,0.6 -0.5,1.6 -1.1,2.2 -1.7,1.7 -0.1,3.5 2,2.3 4.2,-2.2 4.2,3.9 0.1,8.7 -1.7,1.8 -3,3.8 -3,4.3 0,0.6 -1.7,1 -3.7,1 -7,0 -11.2,4 -8.2,7.6 1,1.2 2.6,1.4 7.3,0.9 5.1,-0.5 6.6,-0.3 9.1,1.5 1.7,1.1 4.5,3 6.3,4.1 1.7,1.2 3.2,2.5 3.2,2.9 0,0.5 2.2,1.3 4.9,1.9 2.6,0.5 7.1,1.9 10,3.1 2.8,1.1 5.4,2 5.6,2 1.1,0 0.4,-2.9 -1.1,-4.1 -1.4,-1.1 -1.3,-1.4 1,-2.6 4.4,-2.3 3.2,-5.7 -4.5,-14 -5.3,-5.6 -5.8,-6.8 -3.3,-7.7 2.7,-1 3.3,-0.7 7.9,3.6 l 4.6,4.1 2.4,-2.3 c 1.4,-1.3 2.5,-2.9 2.5,-3.6 0,-0.6 1.1,-1.5 2.5,-1.8 1.4,-0.4 2.5,-1 2.5,-1.5 0,-1.4 -5.9,-6.1 -7.6,-6.1 -0.9,0 -3,-1.1 -4.7,-2.4 -1.8,-1.3 -4.9,-2.7 -6.9,-3 -4.5,-0.8 -5.8,-2.4 -3.4,-4.2 1.1,-0.8 1.6,-2 1.2,-3.1 -0.9,-2.7 -6.9,-6.4 -11.6,-7 -3.8,-0.5 -4,-0.6 -2,-2 3.1,-2.2 1.4,-3.6 -3.4,-2.9 -3.8,0.6 -4.7,0.3 -9.6,-3.4 -4.7,-3.5 -6,-4.1 -9,-3.6 -1.9,0.3 -4.3,1.5 -5.3,2.8 -1.7,2.1 -1.9,2.1 -4.7,0.5 -1.5,-0.9 -3.6,-1.7 -4.5,-1.7 -1.3,0 -1.6,-0.8 -1.3,-3.6 0.5,-5.5 -1.8,-6.4 -8.4,-3.6 -4.5,1.9 -5.3,2 -6.1,0.7 -1.8,-3.2 -12.1,-0.6 -15.2,3.9 -2.9,4 -1.7,9.5 3.3,14.8 2.3,2.5 3.3,2.8 8.6,2.8 5.3,0 5.8,0.1 4.1,1.4 -1.6,1.2 -1.7,1.8 -0.7,4 1.3,2.8 0,4.5 -2.2,2.7 -1.4,-1.2 -2.6,-0.5 -2.6,1.6 0,0.7 0.7,1.3 1.6,1.3 0.9,0 1.4,0.6 1.2,1.2 -0.3,0.7 -1.3,1.3 -2.4,1.3 -1.4,0 -2,-0.9 -2.5,-3.7 -0.6,-4 -3.3,-7.8 -5.5,-7.8 -0.8,0 -2.1,1.1 -3,2.5 -2,3 -3.4,3.2 -3.4,0.5 0,-1.1 -0.9,-2.5 -2,-3.2 -1.1,-0.7 -2,-2.2 -2,-3.4 0,-1.2 -1.4,-3.8 -3,-5.9 -1.7,-2.1 -2.8,-4.3 -2.5,-4.9 0.3,-0.6 0.8,-1.9 1.1,-2.8 0.3,-1 1.4,-2 2.5,-2.3 2.6,-0.9 6.9,-6.3 6.3,-8 -0.7,-1.7 -7.8,-2.1 -11.8,-0.5 -3.8,1.4 -4.8,4.1 -3.6,9.5 1,4.4 0.9,4.8 -2.2,8.6 -2.9,3.6 -3.1,4.3 -2.1,6.9 1,2.5 0.9,3 -0.5,3 -0.8,0 -2.4,-0.7 -3.3,-1.6 -2,-1.8 -2.5,-1.6 -8.3,3 -2.1,1.7 -1.4,3.6 1.5,3.6 1,0 1.9,0.7 1.9,1.5 0,2 -7.4,3.8 -13.3,3.2 -5.3,-0.5 -6.9,-1.4 -4.7,-2.7 1.1,-0.7 1.2,-1.2 0.3,-2.1 -1.5,-1.5 -3.4,-0.2 -2.6,1.9 0.5,1.3 0,1.2 -1.9,-0.6 -1.4,-1.2 -4.5,-2.6 -6.9,-3.1 -4.2,-0.8 -4.3,-0.8 -1.6,-1.6 3.9,-1.1 9.9,-0.1 15.2,2.5 5.3,2.6 6.5,2.1 4.1,-1.5 -1.7,-2.6 -1.4,-4.5 0.8,-4.5 0.6,0 1.7,-0.5 2.4,-1.2 1.8,-1.8 -0.5,-3.8 -4.2,-3.8 -4.6,0 -7.2,-2.3 -9.1,-7.9 -1.3,-4 -1.4,-5.5 -0.5,-7.2 1,-1.7 0.9,-2.4 -0.4,-3.7 -1.2,-1.3 -1.8,-1.3 -3.1,-0.2 -0.8,0.7 -1.3,1.5 -1,1.8 0.3,0.3 -0.8,1.1 -2.5,1.8 -2.1,0.9 -3.2,2.2 -3.6,4.4 l -0.6,3 -3.4,-2.9 c -4.2,-3.8 -7.4,-4.8 -8.5,-2.8 -0.7,1.2 -1.4,1.3 -4.3,0.3 -1.8,-0.6 -4,-1.7 -4.9,-2.4 -0.8,-0.7 -2.1,-1 -3,-0.6 -1,0.3 -1.7,-0.2 -2.1,-1.4 -0.9,-2.8 -7,-5 -15.7,-5.7 -6.4,-0.5 -7.8,-0.4 -9.8,1.2 z"
       id="path833"
       style="fill:#000000;stroke:none;stroke-width:0.1" />
    <path
       d="m 252.7,79.3 c -4.1,1.8 -4.8,2.5 -4.4,4.5 0.4,1.8 0.1,2.2 -1.2,1.6 -3.5,-1.4 -5.1,-1.6 -5.1,-0.5 0,1.6 5.6,6.7 10.7,9.8 4.3,2.5 4.3,2.5 7.4,0.6 5,-2.9 5.7,-4.8 3.1,-7.6 -1.7,-1.8 -2.1,-3.1 -1.6,-5.1 0.6,-2.7 -0.9,-5.7 -3,-5.5 -0.6,0.1 -3.3,1.1 -5.9,2.2 z"
       id="path837"
       style="fill:#000000;stroke:none;stroke-width:0.1" />
    <path
       d="m 319,80.5 c -1,1.2 -1,2.1 -0.2,4 1,2.1 1.8,2.5 5.7,2.5 4.7,0 8.5,-1.3 8.5,-3 0,-1.4 -7.5,-5 -10.3,-5 -1.4,0 -3,0.7 -3.7,1.5 z"
       id="path841"
       style="fill:#000000;stroke:none;stroke-width:0.1" />
    <path
       d="m 149,98.5 c 0,0.8 0.7,1.5 1.5,1.5 0.8,0 1.5,-0.7 1.5,-1.5 0,-0.8 -0.7,-1.5 -1.5,-1.5 -0.8,0 -1.5,0.7 -1.5,1.5 z"
       id="path849"
       style="fill:#000000;stroke:none;stroke-width:0.1" />
    <path
       d="m 321.4,108.1 c -0.8,1.4 1.8,3.1 3,1.9 0.9,-0.9 0,-3 -1.4,-3 -0.5,0 -1.2,0.5 -1.6,1.1 z"
       id="path863"
       style="fill:#000000;stroke:none;stroke-width:0.1" />
    <path
       d="m 330,111.4 c 0,0.8 0.4,1.8 1,2.1 0.6,0.4 0.5,1.3 -0.2,2.4 -1.6,2.5 -0.3,5.1 2.5,5.1 4.8,0 6.4,-4.9 2.2,-6.8 -1.4,-0.6 -2.4,-1.7 -2.3,-2.4 0.2,-0.6 -0.5,-1.4 -1.4,-1.6 -1.1,-0.2 -1.8,0.2 -1.8,1.2 z"
       id="path865"
       style="fill:#000000;stroke:none;stroke-width:0.1" />
    <path
       d="m 323,114.5 c 0,0.8 0.7,1.5 1.5,1.5 0.8,0 1.5,-0.7 1.5,-1.5 0,-0.8 -0.7,-1.5 -1.5,-1.5 -0.8,0 -1.5,0.7 -1.5,1.5 z"
       id="path869"
       style="fill:#000000;stroke:none;stroke-width:0.1" />
    <path
       d="m 0,143.5 c 0,1.9 3.5,3.7 6.7,3.3 3.6,-0.4 3.9,-2.2 0.8,-3.6 C 3.9,141.5 0,141.7 0,143.5 Z"
       id="path879"
       style="fill:#000000;stroke:none;stroke-width:0.1" />
    <path
       d="m 331.7,142.6 c -0.9,1 0.2,2.4 1.9,2.4 0.8,0 1.4,-0.7 1.4,-1.5 0,-1.5 -2.1,-2.1 -3.3,-0.9 z"
       id="path881"
       style="fill:#000000;stroke:none;stroke-width:0.1" />
    <path
       d="m 326.2,144.4 c 0.1,1 0.8,1.7 1.3,1.7 1.5,-0.1 1.2,-2.4 -0.3,-2.9 -0.9,-0.3 -1.3,0.2 -1,1.2 z"
       id="path883"
       style="fill:#000000;stroke:none;stroke-width:0.1" />
    <path
       d="m 320.2,148.5 c -1.2,2.2 -0.4,5.7 1.2,5.2 1.5,-0.5 2,-4.7 0.8,-5.9 -0.7,-0.7 -1.3,-0.4 -2,0.7 z"
       id="path885"
       style="fill:#000000;stroke:none;stroke-width:0.1" />
    <path
       d="m 307.7,148.7 c -1.4,1.3 -0.7,3.3 1.1,3.3 1.9,0 4.2,-1.8 4.2,-3.2 0,-1 -4.4,-1.1 -5.3,-0.1 z"
       id="path887"
       style="fill:#000000;stroke:none;stroke-width:0.1" />
    <path
       d="m 362.5,160 c -0.8,1.3 0.4,3.2 1.6,2.5 1.2,-0.8 1.2,-3.5 0,-3.5 -0.6,0 -1.3,0.4 -1.6,1 z"
       id="path893"
       style="fill:#000000;stroke:none;stroke-width:0.1" />
    <path
       d="m 14.2,162.2 c 0.5,1.5 2.8,1.8 2.9,0.3 0,-0.6 -0.7,-1.2 -1.7,-1.3 -1,-0.3 -1.5,0.1 -1.2,1 z"
       id="path897"
       style="fill:#000000;stroke:none;stroke-width:0.1" />
    <path
       d="m 30.5,170 c -0.7,1.2 0.2,3 1.6,3 0.5,0 0.9,-0.9 0.9,-2 0,-2.1 -1.5,-2.7 -2.5,-1 z"
       id="path901"
       style="fill:#000000;stroke:none;stroke-width:0.1" />
    <path
       d="m 63.5,172.8 c -4.1,2.5 -5.6,4.5 -4.6,6.1 1.1,1.7 4.1,0.2 7,-3.5 3.6,-4.6 2.6,-5.6 -2.4,-2.6 z"
       id="path907"
       style="fill:#000000;stroke:none;stroke-width:0.1" />
    <path
       d="m 121.5,174.9 c -0.3,0.5 -0.1,1.2 0.5,1.6 1.2,0.7 3,-0.2 3,-1.6 0,-1.2 -2.7,-1.2 -3.5,0 z"
       id="path909"
       style="fill:#000000;stroke:none;stroke-width:0.1" />
    <path
       d="m 3.4,180.4 c -0.8,2.2 0.3,3.3 1.8,1.8 0.9,-0.9 0.9,-1.5 0,-2.4 -0.9,-0.9 -1.3,-0.7 -1.8,0.6 z"
       id="path915"
       style="fill:#000000;stroke:none;stroke-width:0.1" />
    <path
       d="m 56.5,182.1 c -1,1.5 0.1,2.3 2,1.5 0.9,-0.3 1.3,-1 1,-1.6 -0.8,-1.3 -2.2,-1.3 -3,0.1 z"
       id="path917"
       style="fill:#000000;stroke:none;stroke-width:0.1" />
    <path
       d="m 320.5,183 c -0.7,1.2 0.2,3 1.6,3 1.2,0 1.2,-2.7 0,-3.5 -0.5,-0.3 -1.2,-0.1 -1.6,0.5 z"
       id="path919"
       style="fill:#000000;stroke:none;stroke-width:0.1" />
    <path
       d="m 132.7,184.7 c -0.4,0.3 -0.7,1.7 -0.7,3 0,2.8 2.3,2.7 2.8,-0.1 0.4,-2 -1.1,-4 -2.1,-2.9 z"
       id="path921"
       style="fill:#000000;stroke:none;stroke-width:0.1" />
    <path
       d="m 53.4,186.1 c -1,1.7 1.3,3.6 2.7,2.2 1.2,-1.2 0.4,-3.3 -1.1,-3.3 -0.5,0 -1.2,0.5 -1.6,1.1 z"
       id="path923"
       style="fill:#000000;stroke:none;stroke-width:0.1" />
    <path
       d="m 23,191.5 c 0,0.8 0.7,1.5 1.5,1.5 0.8,0 1.5,-0.7 1.5,-1.5 0,-0.8 -0.7,-1.5 -1.5,-1.5 -0.8,0 -1.5,0.7 -1.5,1.5 z"
       id="path933"
       style="fill:#000000;stroke:none;stroke-width:0.1" />
    <path
       d="m 13.3,193.6 c -0.8,2 1.7,3.6 3.4,2.2 1,-0.8 1,-1.4 0.2,-2.4 -1.5,-1.8 -2.8,-1.8 -3.6,0.2 z"
       id="path937"
       style="fill:#000000;stroke:none;stroke-width:0.1" />
    <path
       d="m 131.5,194 c -0.8,1.4 0.3,3 2.1,3 0.8,0 1.4,-0.9 1.4,-2 0,-2.1 -2.4,-2.8 -3.5,-1 z"
       id="path939"
       style="fill:#000000;stroke:none;stroke-width:0.1" />
    <path
       d="m 7,198.5 c 0,0.8 0.7,1.5 1.5,1.5 0.8,0 1.5,-0.7 1.5,-1.5 C 10,197.7 9.3,197 8.5,197 7.7,197 7,197.7 7,198.5 Z"
       id="path941"
       style="fill:#000000;stroke:none;stroke-width:0.1" />
    <path
       d="m 313.2,199.3 c -0.9,1 -0.7,1.9 0.4,3.5 1.7,2.5 3.4,2.1 3.4,-0.7 0,-2.7 -2.4,-4.5 -3.8,-2.8 z"
       id="path943"
       style="fill:#000000;stroke:none;stroke-width:0.1" />
    <path
       d="m 133,201.7 c 0.1,2.9 3.9,10.5 5,9.8 1.5,-0.9 1.2,-6.8 -0.6,-9.3 -1.8,-2.6 -4.4,-2.9 -4.4,-0.5 z"
       id="path947"
       style="fill:#000000;stroke:none;stroke-width:0.1" />
    <path
       d="m 401.2,216 c -9.9,7.2 -8.4,14.1 2.4,11.1 4.9,-1.4 5.7,-1.4 4.9,0 -0.4,0.5 -0.4,2.2 0,3.6 l 0.6,2.6 2.3,-2.2 c 1.6,-1.5 2.6,-1.9 3.1,-1.2 0.8,1.5 2.5,0.4 2.5,-1.6 0,-0.9 -0.6,-1.3 -1.5,-0.9 -1.1,0.4 -1.5,-0.2 -1.5,-2.4 0,-3.9 -2.4,-6 -6.7,-6 -3.4,0 -3.5,-0.1 -2,-1.8 1.8,-2 2.2,-4.2 0.9,-4.2 -0.5,0 -2.8,1.3 -5,3 z"
       id="path951"
       style="fill:#000000;stroke:none;stroke-width:0.1" />
    <path
       d="m 377.6,217.9 c -1.1,1.7 5.4,5.4 7.8,4.5 2.4,-0.9 1.9,-2.9 -0.9,-4.2 -3.1,-1.4 -6.2,-1.5 -6.9,-0.3 z"
       id="path953"
       style="fill:#000000;stroke:none;stroke-width:0.1" />
    <path
       d="m 402.5,229.9 c -0.3,0.5 -0.1,1.2 0.5,1.6 1.2,0.7 3,-0.2 3,-1.6 0,-1.2 -2.7,-1.2 -3.5,0 z"
       id="path961"
       style="fill:#000000;stroke:none;stroke-width:0.1" />
    <path
       d="m 372,298.5 c 0,0.8 0.7,1.5 1.5,1.5 0.8,0 1.5,-0.7 1.5,-1.5 0,-0.8 -0.7,-1.5 -1.5,-1.5 -0.8,0 -1.5,0.7 -1.5,1.5 z"
       id="path1001"
       style="fill:#000000;stroke:none;stroke-width:0.1" />
    <path
       d="m 324.4,322.1 c -0.8,1.4 1.1,3.3 2.5,2.5 1.1,-0.7 0.4,-3.6 -0.9,-3.6 -0.5,0 -1.2,0.5 -1.6,1.1 z"
       id="path1015"
       style="fill:#000000;stroke:none;stroke-width:0.1" />
    <path
       d="m 330,324.5 c 0,0.8 0.7,1.5 1.5,1.5 0.8,0 1.5,-0.7 1.5,-1.5 0,-0.8 -0.7,-1.5 -1.5,-1.5 -0.8,0 -1.5,0.7 -1.5,1.5 z"
       id="path1019"
       style="fill:#000000;stroke:none;stroke-width:0.1" />
    <path
       d="m 324.2,330.2 c 0.5,1.5 2.8,1.8 2.9,0.3 0,-0.6 -0.7,-1.2 -1.7,-1.3 -1,-0.3 -1.5,0.1 -1.2,1 z"
       id="path1025"
       style="fill:#000000;stroke:none;stroke-width:0.1" />
    <path
       d="m 331.5,329.9 c -0.3,0.5 -0.1,1.2 0.5,1.6 1.2,0.7 3,-0.2 3,-1.6 0,-1.2 -2.7,-1.2 -3.5,0 z"
       id="path1027"
       style="fill:#000000;stroke:none;stroke-width:0.1" />
    <path
       d="m 327.5,334.1 c -1,1.5 0.1,2.3 2,1.5 0.9,-0.3 1.3,-1 1,-1.6 -0.8,-1.3 -2.2,-1.3 -3,0.1 z"
       id="path1033"
       style="fill:#000000;stroke:none;stroke-width:0.1" />
    <path
       d="m 334.7,333.6 c -1.3,1.3 -0.7,2.4 1.4,2.4 1.1,0 1.9,-0.5 1.7,-1.2 -0.5,-1.4 -2.2,-2.1 -3.1,-1.2 z"
       id="path1035"
       style="fill:#000000;stroke:none;stroke-width:0.1" />
    <path
       d="m 331.7,338.5 c -0.7,1.6 0.8,2.9 2.2,2 0.5,-0.3 1.2,-0.1 1.6,0.5 1,1.5 3.5,1.2 3.5,-0.5 0,-0.8 -0.9,-1.5 -1.9,-1.5 -1.1,0 -2.3,-0.5 -2.6,-1 -0.9,-1.4 -2.2,-1.2 -2.8,0.5 z"
       id="path1039"
       style="fill:#000000;stroke:none;stroke-width:0.1" />
    <path
       d="m 307,341.8 -2.4,1.9 3.2,1.7 c 1.8,0.9 3.2,2.3 3.2,3.2 0,0.8 0.5,1.2 1,0.9 0.6,-0.3 0.7,-1.7 0.4,-3.1 -0.6,-2.3 -0.4,-2.4 1.9,-1.5 7.4,2.8 14.5,7.2 15,9.2 0.5,2 1,2.1 4.9,1.5 8.8,-1.4 7.2,-4.2 -6.3,-10.6 -10.9,-5.2 -17.3,-6.2 -20.9,-3.2 z"
       id="path1041"
       style="fill:#000000;stroke:none;stroke-width:0.1" />
    <path
       d="m 342,343.5 c 0,0.8 0.7,1.5 1.5,1.5 0.8,0 1.5,-0.7 1.5,-1.5 0,-0.8 -0.7,-1.5 -1.5,-1.5 -0.8,0 -1.5,0.7 -1.5,1.5 z"
       id="path1043"
       style="fill:#000000;stroke:none;stroke-width:0.1" />
    <path
       d="m 347.4,344.1 c -0.8,1.4 1.8,3.1 3,1.9 0.9,-0.9 0,-3 -1.4,-3 -0.5,0 -1.2,0.5 -1.6,1.1 z"
       id="path1047"
       style="fill:#000000;stroke:none;stroke-width:0.1" />
    <path
       d="m 345.1,348.4 c -0.9,1 -0.9,1.6 -0.1,2.1 1.7,1 3.7,-1.2 2.4,-2.5 -0.8,-0.8 -1.5,-0.6 -2.3,0.4 z"
       id="path1051"
       style="fill:#000000;stroke:none;stroke-width:0.1" />
    <path
       d="m 343.6,358.1 c -2.3,2.5 -2.6,3.3 -1.5,4 1.6,1 12.8,1 17.4,0 6.8,-1.4 1.2,-6.2 -8,-6.8 -4.5,-0.3 -5.3,0 -7.9,2.8 z"
       id="path1057"
       style="fill:#000000;stroke:none;stroke-width:0.1" />
    <path
       d="m 366.4,360.1 c -0.9,1.5 1.2,3.3 3,2.6 0.9,-0.4 1.6,-1.3 1.6,-2.2 0,-1.7 -3.5,-2.1 -4.6,-0.4 z"
       id="path1059"
       style="fill:#000000;stroke:none;stroke-width:0.1" />
    <path
       d="m 326.7,360.7 c -0.4,0.3 -0.7,1.2 -0.7,2 0,1.6 4.6,1.8 5.6,0.2 1.1,-1.9 -3.3,-3.9 -4.9,-2.2 z"
       id="path1063"
       style="fill:#000000;stroke:none;stroke-width:0.1" />
    <path
       d="m 373.5,363 c -0.3,0.6 0.1,1.3 1,1.6 1.9,0.8 3,0 2,-1.5 -0.8,-1.4 -2.2,-1.4 -3,-0.1 z"
       id="path1065"
       style="fill:#000000;stroke:none;stroke-width:0.1" />
    <path
       d="m 301.5,364 c -0.7,1.2 0.2,3 1.6,3 1.2,0 1.2,-2.7 0,-3.5 -0.5,-0.3 -1.2,-0.1 -1.6,0.5 z"
       id="path1067"
       style="fill:#000000;stroke:none;stroke-width:0.1" />
    <path
       d="m 379.4,364.1 c -1,1.7 1.3,3.6 2.7,2.2 1.2,-1.2 0.4,-3.3 -1.1,-3.3 -0.5,0 -1.2,0.5 -1.6,1.1 z"
       id="path1069"
       style="fill:#000000;stroke:none;stroke-width:0.1" />
    <path
       d="m 385,366.5 c 0,1 0.7,1.5 1.8,1.3 2.1,-0.4 1.9,-2.2 -0.2,-2.6 -1,-0.2 -1.6,0.3 -1.6,1.3 z"
       id="path1071"
       style="fill:#000000;stroke:none;stroke-width:0.1" />
    <path
       d="m 385,372.5 c 0,1 0.7,1.5 1.8,1.3 2.1,-0.4 1.9,-2.2 -0.2,-2.6 -1,-0.2 -1.6,0.3 -1.6,1.3 z"
       id="path1077"
       style="fill:#000000;stroke:none;stroke-width:0.1" />
    <path
       d="m 387.1,376.9 c -0.7,0.5 -1.1,1.3 -0.7,1.9 0.3,0.6 0.2,1.3 -0.4,1.7 -1.7,1.1 -1.1,3.7 0.8,3.3 0.9,-0.2 1.6,-1 1.4,-1.7 -0.1,-0.7 0.3,-2 0.9,-2.7 1.5,-1.8 0,-3.7 -2,-2.5 z"
       id="path1087"
       style="fill:#000000;stroke:none;stroke-width:0.1" />
    <path
       d="m 392.4,383.1 c -1,1.7 1.3,3.6 2.7,2.2 1.2,-1.2 0.4,-3.3 -1.1,-3.3 -0.5,0 -1.2,0.5 -1.6,1.1 z"
       id="path1093"
       style="fill:#000000;stroke:none;stroke-width:0.1" />
    <path
       d="m 360.5,384.9 c -0.3,0.5 -0.1,1.2 0.5,1.6 1.2,0.7 3,-0.2 3,-1.6 0,-1.2 -2.7,-1.2 -3.5,0 z"
       id="path1097"
       style="fill:#000000;stroke:none;stroke-width:0.1" />
    <path
       d="m 366.5,386.1 c -1,1.5 0.1,2.3 2,1.5 0.9,-0.3 1.3,-1 1,-1.6 -0.8,-1.3 -2.2,-1.3 -3,0.1 z"
       id="path1101"
       style="fill:#000000;stroke:none;stroke-width:0.1" />
    <path
       d="m 384,388.6 c 0,0.9 0.5,1.4 1.2,1.2 1.8,-0.6 2.1,-2.8 0.4,-2.8 -0.9,0 -1.6,0.7 -1.6,1.6 z"
       id="path1105"
       style="fill:#000000;stroke:none;stroke-width:0.1" />
    <path
       d="m 388,392.5 c 0,0.8 0.7,1.5 1.5,1.5 0.8,0 1.5,-0.7 1.5,-1.5 0,-0.8 -0.7,-1.5 -1.5,-1.5 -0.8,0 -1.5,0.7 -1.5,1.5 z"
       id="path1113"
       style="fill:#000000;stroke:none;stroke-width:0.1" />
    <path
       d="m 337.3,622.6 c -0.8,2.1 1.3,4.2 2.8,2.7 1.3,-1.3 0.5,-4.3 -1.1,-4.3 -0.6,0 -1.3,0.7 -1.7,1.6 z"
       id="path1367"
       style="fill:#000000;stroke:none;stroke-width:0.1" />
    <path
       d="m 334.5,649.9 c -0.3,0.5 -0.1,1.2 0.5,1.6 1.2,0.7 3,-0.2 3,-1.6 0,-1.2 -2.7,-1.2 -3.5,0 z"
       id="path1371"
       style="fill:#000000;stroke:none;stroke-width:0.1" />
    <path
       d="m 334.5,656.9 c -0.7,1.2 1.2,2.4 2.5,1.6 1.1,-0.7 0.4,-2.5 -1,-2.5 -0.5,0 -1.1,0.4 -1.5,0.9 z"
       id="path1375"
       style="fill:#000000;stroke:none;stroke-width:0.1" />
    <path
       d="m 339,674.3 c 0,0.8 0.9,2.2 2,3.2 1.1,1 1.7,2.2 1.4,2.6 -0.3,0.5 0.2,0.9 1,0.9 1.8,0 2.2,-2.5 0.6,-3.5 -0.6,-0.4 -0.7,-1.1 -0.4,-1.7 0.7,-1.1 -1.3,-2.8 -3.3,-2.8 -0.7,0 -1.3,0.6 -1.3,1.3 z"
       id="path1383"
       style="fill:#000000;stroke:none;stroke-width:0.1" />
    <path
       d="m 372.5,684 c -0.7,1.2 0.2,3 1.6,3 1.2,0 1.2,-2.7 0,-3.5 -0.5,-0.3 -1.2,-0.1 -1.6,0.5 z"
       id="path1389"
       style="fill:#000000;stroke:none;stroke-width:0.1" />
    <path
       d="m 355,691 c 0,1.3 0.7,2 2,2 1.3,0 2,-0.7 2,-2 0,-1.3 -0.7,-2 -2,-2 -1.3,0 -2,0.7 -2,2 z"
       id="path1391"
       style="fill:#000000;stroke:none;stroke-width:0.1" />
  </g>
</svg>
