<?xml version="1.0" standalone="no"?>
<!DOCTYPE svg PUBLIC "-//W3C//DTD SVG 20010904//EN"
 "http://www.w3.org/TR/2001/REC-SVG-20010904/DTD/svg10.dtd">
<svg version="1.0" xmlns="http://www.w3.org/2000/svg"
 width="1280.000000pt" height="698.000000pt" viewBox="0 0 1280.000000 698.000000"
 preserveAspectRatio="xMidYMid meet">
<metadata>
Created by potrace 1.15, written by Peter Selinger 2001-2017
</metadata>
<g transform="translate(0.000000,698.000000) scale(0.100000,-0.100000)"
fill="#000000" stroke="none">
<path d="M4650 6929 c-14 -5 -31 -17 -38 -27 -11 -14 -16 -15 -45 -2 -17 8
-59 14 -92 15 -33 0 -66 4 -73 9 -20 12 -62 -21 -62 -48 0 -29 22 -39 47 -21
15 11 21 11 36 -2 34 -31 20 -36 -87 -29 -113 8 -146 0 -146 -35 0 -19 -1 -19
-31 3 -29 22 -31 22 -43 5 -11 -13 -29 -17 -87 -18 -98 0 -140 -15 -158 -56
-12 -27 -20 -32 -60 -37 -64 -9 -163 -56 -159 -76 3 -11 17 -15 61 -14 31 1
57 -2 57 -6 0 -15 -61 -60 -88 -66 -15 -3 -36 -9 -47 -14 -11 -4 -31 -8 -45
-8 -40 -2 -100 -33 -100 -53 0 -23 54 -39 129 -39 66 0 63 -6 -9 -20 -64 -12
-85 -27 -69 -46 6 -8 20 -14 30 -14 11 0 19 -6 19 -14 0 -23 56 -37 108 -26
26 5 94 11 152 14 l105 5 40 -54 c22 -31 45 -63 50 -73 6 -9 18 -29 28 -43 10
-15 21 -46 25 -70 8 -49 39 -68 49 -30 7 27 19 27 27 -1 9 -35 8 -37 -30 -53
-41 -17 -38 -31 9 -40 76 -15 83 -26 46 -73 -18 -24 -19 -28 -5 -37 13 -8 10
-14 -17 -36 -26 -22 -30 -30 -19 -40 10 -11 16 -11 32 -1 26 16 25 10 -6 -39
-19 -30 -24 -48 -19 -70 4 -16 12 -29 18 -29 7 0 21 -21 31 -48 12 -27 46 -74
81 -109 49 -51 67 -63 92 -63 22 0 32 -5 36 -20 7 -26 31 -25 74 1 38 24 53
53 53 105 0 19 4 42 9 52 5 9 15 30 22 46 19 40 106 108 130 101 38 -12 119
54 119 96 0 11 6 19 13 19 7 0 28 11 47 25 28 21 46 25 99 25 81 1 125 10 221
47 102 39 100 56 -4 63 -69 4 -77 7 -63 19 10 7 17 22 17 32 0 12 7 19 20 19
19 0 28 -7 55 -45 11 -16 17 -18 32 -9 26 16 28 52 3 79 l-21 23 25 6 c36 9
36 46 1 46 -14 0 -28 7 -31 15 -4 8 -14 15 -24 15 -21 0 -44 25 -35 40 10 16
28 12 78 -20 46 -29 97 -40 97 -20 0 5 -12 21 -27 35 l-28 25 41 0 c62 0 70
17 28 57 -20 18 -41 33 -47 34 -7 1 -1 4 13 8 37 10 30 33 -15 46 l-40 12 70
4 c39 2 70 9 69 14 0 6 -19 19 -42 30 -47 22 -52 30 -21 38 23 6 17 27 -7 27
-20 0 -17 18 4 24 19 6 72 79 72 98 0 6 -15 8 -35 6 -59 -7 -22 13 40 21 37 5
61 14 67 24 5 10 17 17 26 17 30 1 102 39 102 54 0 20 -57 30 -125 22 -49 -5
-53 -4 -48 13 6 24 -13 36 -33 20 -13 -10 -12 -14 2 -30 16 -18 15 -19 -21
-19 -30 0 -36 3 -27 12 15 15 16 38 1 38 -6 0 -20 -11 -30 -24 -10 -13 -32
-29 -48 -34 -25 -9 -30 -8 -34 10 -5 19 -12 20 -114 16 -93 -4 -119 -9 -186
-36 -78 -32 -134 -44 -94 -21 44 25 198 70 272 79 170 19 237 70 93 70 -63 0
-69 2 -57 16 10 13 10 17 -2 25 -24 15 -126 10 -231 -11 -56 -12 -108 -19
-117 -17 -10 2 -5 7 14 11 47 11 78 26 71 33 -6 6 -192 32 -226 32 -8 0 -26
-5 -40 -10z"/>
<path d="M3176 6916 c-39 -12 -76 -47 -76 -72 0 -10 -15 -14 -54 -14 -39 0
-55 -4 -60 -15 -3 -9 -19 -15 -43 -16 -46 0 -149 -21 -160 -32 -11 -11 17 -27
48 -27 17 0 33 -9 43 -25 23 -36 61 -52 81 -35 12 10 26 10 73 -5 104 -31 112
-36 49 -30 -68 6 -100 -7 -95 -38 4 -27 89 -76 133 -77 26 -1 27 -3 10 -10
-18 -8 -55 -6 -112 6 -21 4 -35 22 -68 92 -8 17 -20 32 -27 32 -6 0 -42 14
-79 31 -71 33 -97 33 -106 0 -3 -11 -14 -21 -26 -23 -11 -2 -29 -16 -41 -31
l-21 -28 25 -19 c14 -11 43 -23 65 -28 39 -9 39 -9 13 -17 -35 -9 -35 -13 1
-53 39 -41 91 -44 146 -6 46 31 72 18 37 -19 -12 -13 -22 -27 -22 -32 0 -5 -9
-19 -21 -31 l-21 -22 21 -12 c12 -6 69 -15 129 -20 59 -5 125 -12 147 -15 31
-4 49 0 80 18 48 27 52 50 10 57 -30 5 -29 6 22 28 28 12 56 22 61 22 14 0 52
45 52 63 0 11 -11 17 -37 19 l-38 3 43 13 c26 8 42 19 42 28 0 11 5 14 18 9
52 -21 77 -17 142 22 36 21 95 54 133 72 37 19 67 38 67 42 0 4 -10 11 -21 14
-18 6 -9 13 50 41 39 19 71 41 71 49 0 8 -20 26 -45 41 -46 26 -55 27 -129 8
-21 -5 -25 -3 -20 10 4 11 -2 19 -22 26 -41 16 -420 20 -468 6z"/>
<path d="M4263 6884 c-8 -20 17 -36 34 -22 10 8 10 14 2 24 -15 18 -28 18 -36
-2z"/>
<path d="M4200 6865 c0 -8 7 -15 15 -15 8 0 15 7 15 15 0 8 -7 15 -15 15 -8 0
-15 -7 -15 -15z"/>
<path d="M8143 6761 c-3 -13 -11 -17 -24 -14 -27 8 -26 -33 2 -42 11 -4 22 -5
23 -3 7 11 26 60 26 68 0 18 -22 10 -27 -9z"/>
<path d="M8273 6754 c-8 -20 17 -36 34 -22 10 8 10 14 2 24 -15 18 -28 18 -36
-2z"/>
<path d="M7867 6744 c-13 -13 -7 -24 14 -24 11 0 19 5 17 12 -5 14 -22 21 -31
12z"/>
<path d="M9260 6730 c-13 -8 -13 -11 0 -24 18 -19 46 -5 37 18 -7 18 -16 20
-37 6z"/>
<path d="M9399 6718 c-19 -11 -48 -34 -65 -52 -17 -18 -37 -35 -45 -38 -11 -4
-7 -13 15 -36 22 -24 56 -40 139 -67 60 -19 116 -35 123 -35 21 0 36 71 23
109 -13 37 -24 39 -57 9 l-25 -23 5 47 c6 50 2 56 -53 90 -24 16 -28 15 -60
-4z"/>
<path d="M7953 6715 c6 -16 76 -30 95 -19 36 23 24 33 -37 31 -37 -1 -60 -5
-58 -12z"/>
<path d="M8182 6718 c5 -15 28 -18 29 -3 0 6 -7 12 -17 13 -10 3 -15 -1 -12
-10z"/>
<path d="M8318 6697 c-18 -7 -28 -18 -28 -31 0 -16 3 -17 12 -8 7 7 25 12 41
12 21 0 28 4 25 17 -4 21 -16 23 -50 10z"/>
<path d="M7695 6686 c-26 -19 -13 -42 40 -68 34 -17 48 -19 57 -10 8 8 5 14
-15 21 -31 12 -34 23 -12 41 8 7 15 16 15 21 0 14 -64 10 -85 -5z"/>
<path d="M7816 6687 c-17 -12 -17 -14 1 -48 19 -38 54 -61 73 -49 18 11 3 30
-23 30 -27 0 -11 16 26 25 21 6 27 4 27 -9 0 -22 26 -31 44 -16 11 8 20 8 34
1 26 -14 69 14 51 35 -8 10 -16 11 -32 3 -16 -9 -23 -8 -33 6 -9 12 -28 18
-58 19 -24 0 -48 4 -52 9 -11 11 -38 8 -58 -6z"/>
<path d="M8200 6675 c-20 -22 -21 -25 -6 -31 18 -7 41 9 57 38 15 28 -22 23
-51 -7z"/>
<path d="M8070 6677 c0 -9 5 -28 10 -43 l11 -27 24 23 c27 25 33 50 13 50 -7
0 -23 3 -35 6 -17 5 -23 2 -23 -9z"/>
<path d="M6849 6639 c-13 -19 -16 -20 -44 -5 -17 9 -45 16 -64 16 -32 0 -33
-1 -27 -34 9 -46 -7 -53 -45 -22 -38 32 -44 32 -71 1 -12 -14 -29 -25 -37 -25
-13 1 -13 3 3 15 39 29 -20 48 -81 24 -46 -17 -53 -49 -11 -49 17 0 18 -2 8
-15 -7 -8 -21 -15 -31 -15 -22 0 -24 -9 -6 -34 20 -27 103 -30 138 -5 15 10
35 19 46 19 13 0 9 -6 -14 -20 -39 -23 -42 -37 -10 -49 23 -9 23 -10 -28 -26
-24 -7 -17 -23 17 -41 18 -9 38 -23 46 -31 19 -19 35 -5 74 69 18 33 38 62 45
65 16 6 53 -24 53 -42 0 -24 70 -34 100 -15 23 14 2 41 -56 71 -28 14 -61 36
-74 49 l-23 23 41 -6 c23 -4 60 -10 82 -13 33 -6 47 -2 80 20 23 15 52 31 65
36 41 16 29 26 -50 43 -97 22 -110 21 -126 -4z"/>
<path d="M7190 6630 c-13 -8 -13 -11 1 -26 14 -13 21 -14 38 -4 18 9 20 14 10
26 -13 16 -28 18 -49 4z"/>
<path d="M7360 6615 c0 -8 7 -15 15 -15 8 0 15 7 15 15 0 8 -7 15 -15 15 -8 0
-15 -7 -15 -15z"/>
<path d="M8152 6618 c5 -15 28 -18 29 -3 0 6 -7 12 -17 13 -10 3 -15 -1 -12
-10z"/>
<path d="M2505 6611 c-6 -10 21 -41 36 -41 13 0 11 24 -3 38 -14 14 -25 15
-33 3z"/>
<path d="M2315 6576 c-20 -14 -19 -15 9 -45 19 -20 40 -31 57 -31 29 0 46 -14
29 -25 -15 -9 -12 -25 4 -25 8 0 16 7 18 16 2 14 8 12 36 -11 53 -44 84 -13
43 44 -22 30 -99 75 -146 85 -20 4 -37 1 -50 -8z"/>
<path d="M5445 6580 c-3 -6 1 -13 10 -16 19 -8 30 0 20 15 -8 14 -22 14 -30 1z"/>
<path d="M9644 6542 c-46 -42 -70 -82 -55 -91 14 -9 177 31 193 47 16 16 3 37
-35 55 -49 23 -68 21 -103 -11z"/>
<path d="M7055 6540 c-4 -7 -3 -16 3 -22 14 -14 45 -2 40 15 -6 16 -34 21 -43
7z"/>
<path d="M6980 6515 c0 -8 7 -15 15 -15 8 0 15 7 15 15 0 8 -7 15 -15 15 -8 0
-15 -7 -15 -15z"/>
<path d="M2052 6502 c-7 -5 -10 -16 -6 -25 11 -30 -5 -38 -37 -20 -26 15 -31
16 -39 3 -11 -17 7 -43 26 -36 7 3 25 -4 39 -16 31 -24 49 -18 113 38 32 27
35 33 23 48 -14 17 -95 23 -119 8z"/>
<path d="M2580 6487 c0 -18 32 -47 52 -47 9 0 22 7 29 16 11 14 10 18 -6 30
-24 18 -75 18 -75 1z"/>
<path d="M9360 6484 c0 -9 5 -14 12 -12 18 6 21 28 4 28 -9 0 -16 -7 -16 -16z"/>
<path d="M9820 6485 c0 -8 7 -15 15 -15 8 0 15 7 15 15 0 8 -7 15 -15 15 -8 0
-15 -7 -15 -15z"/>
<path d="M5421 6466 c-9 -10 -9 -16 -1 -21 17 -10 37 12 24 25 -8 8 -15 6 -23
-4z"/>
<path d="M9312 6458 c5 -15 28 -18 29 -3 0 6 -7 12 -17 13 -10 3 -15 -1 -12
-10z"/>
<path d="M9680 6424 c-23 -26 -30 -44 -27 -61 4 -22 2 -23 -23 -18 -16 4 -48
-2 -80 -14 -37 -14 -65 -18 -100 -14 -26 3 -70 0 -96 -6 -27 -6 -82 -15 -123
-20 -109 -14 -156 -56 -114 -103 18 -20 18 -20 -27 -13 -25 3 -57 15 -72 26
-34 24 -41 24 -33 -1 6 -18 2 -20 -34 -20 -35 0 -41 -3 -47 -25 -9 -36 0 -52
45 -74 45 -24 46 -25 56 -68 5 -26 3 -33 -9 -33 -9 0 -16 12 -18 33 -3 28 -10
36 -67 65 -35 17 -70 41 -78 52 -8 11 -20 17 -28 14 -20 -8 -19 -24 2 -40 24
-17 10 -29 -16 -14 -17 9 -22 8 -27 -5 -4 -11 6 -29 27 -52 l34 -36 -35 19
c-22 12 -43 36 -57 64 -11 25 -24 45 -27 45 -13 0 -66 -97 -59 -108 4 -7 10
-30 13 -52 5 -41 19 -53 85 -72 42 -12 99 -103 65 -103 -5 0 -10 8 -10 19 0
33 -39 72 -69 69 -21 -2 -33 -16 -59 -65 -18 -35 -40 -63 -48 -63 -13 0 -13 4
1 30 18 34 21 183 5 226 -8 19 -7 37 1 62 10 29 9 37 -7 52 -11 11 -31 22 -46
25 -29 8 -43 -4 -127 -104 -39 -48 -37 -78 10 -122 29 -27 39 -59 17 -59 -7 0
-28 11 -47 25 -23 15 -63 29 -109 36 l-74 12 -33 -36 c-35 -38 -62 -49 -51
-21 12 32 -6 32 -76 -2 -84 -40 -94 -41 -103 -14 -8 24 -14 25 -57 5 -18 -8
-51 -19 -74 -25 -23 -5 -61 -26 -85 -45 -24 -19 -54 -35 -66 -35 -29 0 -30 16
-2 23 41 11 -7 61 -70 73 l-34 7 8 -44 c16 -89 14 -94 -26 -91 -30 3 -43 -3
-74 -32 -20 -19 -34 -39 -31 -45 13 -20 -17 -23 -61 -6 -58 22 -79 8 -43 -30
26 -28 14 -33 -29 -10 -17 8 -34 28 -40 47 -6 18 -21 42 -33 55 -30 32 -17 38
31 14 68 -35 182 -23 220 22 11 14 11 21 -3 42 -16 24 -181 115 -209 115 -8 0
-26 9 -41 21 -21 17 -37 20 -81 17 -48 -3 -52 -1 -39 13 18 20 1 39 -36 39
-14 0 -30 4 -36 9 -8 8 -82 21 -111 20 -7 0 -28 -1 -45 -2 -18 0 -39 1 -47 4
-7 2 -16 -2 -18 -9 -3 -8 4 -16 16 -19 12 -3 21 -9 21 -14 0 -12 -34 -11 -89
2 -30 7 -47 7 -55 -1 -7 -7 -5 -10 6 -10 21 0 33 -19 21 -31 -5 -5 -38 -14
-74 -20 -72 -11 -94 -25 -66 -40 20 -12 23 -39 4 -39 -7 0 -37 -25 -67 -55
-30 -30 -60 -55 -67 -55 -7 0 -13 -9 -13 -19 0 -13 -11 -23 -35 -31 -36 -12
-46 -35 -24 -57 6 -6 9 -23 7 -39 -3 -28 -5 -29 -50 -26 -43 3 -48 1 -48 -18
0 -12 -9 -24 -24 -30 -13 -5 -34 -19 -46 -32 -20 -21 -21 -29 -15 -113 4 -49
12 -96 17 -102 19 -23 73 -15 118 18 50 37 49 38 87 -78 16 -48 34 -85 43 -88
19 -6 129 38 141 56 5 8 9 31 9 51 0 26 6 41 21 52 12 8 27 26 34 40 12 22 11
28 -4 48 -28 35 -33 63 -21 107 8 30 19 45 43 57 50 25 76 54 87 96 11 41 38
61 73 56 38 -5 31 -36 -21 -96 -76 -88 -86 -119 -61 -191 16 -46 40 -55 97
-37 75 23 125 28 157 15 29 -12 26 -13 -50 -21 -44 -5 -90 -11 -103 -14 -34
-7 -43 -42 -21 -83 24 -45 15 -70 -15 -42 -12 12 -27 21 -33 21 -22 0 -52 -51
-51 -86 1 -21 -6 -42 -18 -55 -15 -17 -26 -19 -65 -14 -48 7 -106 -10 -139
-40 -15 -14 -18 -12 -28 10 -13 28 -17 29 -60 14 -22 -7 -36 -7 -51 1 -18 9
-21 19 -19 68 3 52 1 57 -19 60 -14 2 -27 -5 -38 -22 -14 -21 -15 -33 -6 -76
15 -70 15 -70 -19 -70 -46 0 -121 -44 -136 -80 -7 -16 -20 -30 -28 -30 -9 0
-41 -22 -71 -50 -39 -36 -63 -50 -84 -50 -20 0 -34 -8 -45 -25 -11 -17 -26
-25 -46 -25 -47 0 -47 -20 3 -64 67 -59 87 -130 50 -175 -17 -21 -21 -21 -92
-11 -40 7 -93 9 -117 5 -51 -7 -50 -4 -58 -153 l-6 -103 29 -30 c16 -16 36
-29 44 -29 8 0 25 -9 39 -20 25 -19 25 -19 99 6 88 30 123 60 138 120 7 27 17
44 26 44 23 0 95 75 95 98 0 26 27 42 70 42 17 0 47 7 67 15 19 8 42 15 51 15
8 0 49 -36 90 -81 50 -54 84 -82 104 -86 16 -3 37 -17 45 -30 24 -36 7 -56
-52 -65 -26 -4 -49 -9 -52 -12 -12 -12 9 -38 43 -52 43 -18 64 -13 64 16 0 13
9 24 25 30 27 10 41 47 30 80 -6 18 -4 20 19 14 22 -5 26 -3 26 15 0 15 -15
29 -52 50 -83 46 -92 55 -128 125 -34 68 -35 92 -2 63 10 -10 23 -17 29 -17 6
0 18 -11 27 -25 9 -13 42 -44 73 -67 41 -31 62 -56 79 -94 12 -28 36 -72 53
-99 17 -27 31 -59 31 -71 0 -34 16 -38 61 -12 40 22 41 22 55 3 10 -14 17 -16
25 -8 16 16 6 49 -14 45 -9 -2 -17 3 -17 11 0 7 -11 24 -25 37 -28 26 -32 40
-11 40 7 0 19 7 26 15 7 8 25 15 40 15 28 0 40 -15 40 -51 0 -16 -5 -18 -25
-13 -19 5 -25 2 -25 -10 0 -9 8 -16 18 -16 23 0 42 -19 42 -41 0 -9 7 -22 15
-29 11 -9 12 -17 5 -30 -13 -25 -13 -30 5 -30 8 0 15 7 15 16 0 13 7 15 33 11
17 -2 40 0 50 5 12 6 36 6 67 -1 34 -7 58 -7 80 0 17 6 33 9 36 6 8 -8 -35
-167 -57 -210 -19 -36 -23 -39 -52 -32 -18 4 -64 7 -104 6 -61 -1 -87 4 -168
34 -123 46 -143 44 -174 -17 -30 -61 -44 -61 -144 -2 -43 25 -99 54 -125 63
l-47 17 0 66 c0 52 -4 70 -20 88 -19 21 -24 22 -139 15 -97 -6 -142 -15 -244
-46 -138 -43 -154 -46 -172 -24 -19 23 -28 19 -56 -27 -14 -24 -46 -61 -72
-84 -43 -38 -45 -44 -47 -95 -2 -62 -20 -95 -71 -134 -18 -14 -53 -54 -75 -88
-23 -34 -54 -75 -68 -90 -25 -27 -26 -34 -32 -190 -4 -98 -12 -175 -20 -195
-11 -26 -11 -36 -1 -50 7 -9 20 -30 30 -45 9 -16 36 -54 59 -85 24 -32 43 -68
43 -83 0 -59 145 -192 207 -191 90 1 246 23 297 41 88 31 118 28 157 -16 30
-35 37 -38 88 -38 l56 0 0 -131 0 -131 42 -60 c23 -32 45 -73 49 -89 4 -16 16
-42 26 -57 12 -16 24 -59 30 -102 9 -71 8 -79 -22 -164 -39 -107 -37 -152 8
-286 16 -49 38 -130 47 -180 12 -67 32 -123 77 -218 55 -117 65 -157 38 -157
-5 0 -10 -6 -10 -14 0 -21 68 -76 94 -76 38 0 217 29 252 40 75 25 213 218
215 299 1 52 9 66 56 100 53 38 60 65 39 148 -20 81 -14 93 73 152 103 70 127
119 117 238 -3 40 -12 86 -20 101 -8 15 -20 64 -27 108 l-12 81 38 74 c29 56
62 97 136 170 126 124 205 248 244 382 10 34 24 61 36 67 27 15 24 40 -6 40
-13 0 -63 -9 -110 -20 -47 -11 -98 -20 -113 -20 -35 0 -72 26 -72 49 0 10 -7
25 -16 32 -9 7 -31 36 -49 64 -18 27 -44 63 -59 78 -14 15 -26 34 -26 41 0 7
-12 26 -27 40 -22 23 -29 40 -34 94 -6 68 -55 184 -130 310 -17 29 -28 56 -25
60 4 3 9 -4 13 -16 6 -25 28 -29 37 -6 3 8 10 12 16 9 15 -9 56 -94 69 -142 7
-27 22 -50 41 -63 22 -16 30 -31 35 -68 10 -71 12 -76 65 -142 49 -61 53 -72
65 -165 9 -68 28 -95 66 -95 18 0 93 32 187 79 156 79 266 156 288 200 6 12
21 29 33 38 12 8 20 21 17 28 -3 8 4 25 14 38 19 24 19 24 -8 49 -15 13 -38
31 -52 40 -15 9 -34 34 -45 57 -10 23 -21 41 -25 41 -3 0 -16 -13 -27 -28 -21
-28 -78 -62 -105 -62 -15 0 -46 47 -65 99 -7 19 -27 56 -44 83 -32 49 -33 78
-3 78 9 0 41 -27 72 -61 67 -72 100 -91 153 -88 31 3 42 -1 54 -18 22 -31 68
-43 198 -52 115 -7 116 -8 157 -45 22 -20 54 -39 71 -43 28 -5 29 -7 13 -24
-16 -18 -16 -20 1 -39 29 -32 56 -35 76 -9 18 24 19 24 19 -51 0 -78 29 -206
56 -247 8 -12 14 -29 14 -36 0 -8 25 -65 56 -128 l56 -114 29 34 c38 46 58
109 66 204 l6 78 135 135 c100 100 140 134 159 134 14 0 39 8 55 18 29 16 31
16 42 -2 6 -10 28 -42 49 -70 33 -44 37 -57 37 -108 0 -38 5 -62 16 -72 20
-20 22 -20 63 5 18 11 35 19 37 17 12 -13 37 -161 43 -253 5 -90 10 -116 29
-145 12 -19 22 -44 22 -55 1 -55 93 -185 131 -185 15 0 19 7 19 38 0 58 -26
122 -70 176 -22 27 -40 54 -40 61 0 8 -11 27 -25 43 -23 28 -24 31 -11 79 18
68 20 70 58 65 40 -5 58 -19 58 -42 0 -10 11 -25 24 -33 15 -10 25 -29 30 -57
6 -37 8 -40 27 -30 11 6 50 37 88 70 l68 58 -9 72 c-9 77 -26 116 -82 195 -20
27 -36 57 -36 66 0 8 16 31 35 49 l36 35 31 -18 c28 -16 31 -16 42 -1 14 18
64 39 142 58 28 8 60 18 71 24 29 16 130 128 138 153 4 12 20 42 36 67 30 47
37 86 18 97 -7 5 -5 13 6 25 16 17 15 19 -12 34 -18 10 -22 15 -11 16 30 0 30
20 0 68 -56 88 -52 116 23 151 66 31 60 51 -14 51 -127 0 -144 36 -49 103 32
23 60 38 64 35 3 -3 -2 -20 -10 -37 -32 -60 -10 -83 34 -36 18 19 33 25 55 23
26 -3 30 -7 30 -35 0 -19 9 -41 24 -57 18 -19 26 -41 29 -81 5 -60 12 -65 71
-44 52 18 55 37 21 135 l-30 87 34 41 c19 23 52 60 74 84 36 38 43 42 62 32
31 -17 53 -5 113 59 105 113 154 204 177 325 17 86 30 58 40 -87 8 -131 12
-147 34 -147 24 0 41 30 29 50 -7 9 -15 34 -19 55 -7 37 -6 38 19 31 14 -3 28
-3 31 2 2 4 -5 34 -16 67 -12 33 -24 100 -27 150 -5 75 -9 90 -23 93 -10 2
-18 -2 -18 -8 0 -6 -7 -27 -16 -48 l-15 -37 -14 26 c-18 34 -38 41 -90 33 -36
-5 -46 -2 -71 21 l-29 27 80 75 c44 41 107 93 140 115 62 41 61 41 153 22 20
-4 51 0 81 10 44 14 53 14 85 1 36 -15 127 -21 139 -8 4 3 2 12 -3 18 -14 17
42 71 105 101 61 29 90 31 80 7 -16 -37 -11 -58 13 -57 12 0 22 -2 22 -6 0 -9
-89 -92 -134 -125 -58 -42 -80 -100 -72 -189 7 -68 32 -176 41 -176 3 0 23 20
46 45 22 24 49 47 60 50 13 4 19 16 19 34 0 30 27 61 52 61 11 0 18 13 23 40
4 25 12 40 21 40 20 0 29 27 14 45 -6 8 -10 20 -7 27 2 7 0 21 -5 31 -14 27
-2 53 17 37 19 -16 40 -3 24 16 -6 7 -15 11 -20 8 -5 -3 -9 0 -9 6 0 6 8 13
18 16 9 3 31 11 47 19 17 7 52 18 78 24 41 10 52 9 78 -6 24 -14 33 -15 47 -5
96 68 211 116 254 107 42 -10 70 17 57 53 -13 34 -36 60 -74 84 l-30 18 56 -6
c63 -7 89 8 89 54 l1 27 15 -28 c11 -21 20 -27 32 -22 41 17 53 16 83 -9 17
-14 36 -26 43 -26 7 0 21 -9 31 -20 25 -27 34 -25 46 10 6 17 29 42 52 58 60
40 58 55 -7 86 -63 30 -91 33 -104 10 -8 -14 -12 -11 -30 17 -53 87 -255 160
-472 171 l-55 3 -3 -37 c-2 -21 -7 -38 -12 -38 -4 0 -27 9 -51 20 -33 15 -66
20 -130 20 -123 0 -149 7 -161 42 -6 15 -18 33 -28 38 -10 6 -70 10 -132 10
-125 0 -180 17 -202 62 -14 29 -55 34 -95 14 -38 -20 -40 -20 -34 3 4 15 -2
21 -26 26 -17 3 -39 4 -48 1 -10 -3 -34 -1 -53 3 -22 6 -27 9 -13 10 32 1 53
12 53 25 0 17 -91 79 -101 69 -5 -5 -11 -29 -14 -53 -3 -25 -10 -49 -15 -54
-6 -6 -10 -26 -10 -45 l0 -36 -53 3 c-58 2 -106 3 -139 1 -13 -1 -33 2 -45 6
-18 6 -24 2 -32 -18 -19 -48 -41 -44 -112 20 -44 40 -47 49 -19 56 49 13 3 76
-57 79 -69 3 -118 -4 -134 -18 -22 -20 -139 -20 -139 1 0 8 -11 17 -24 21 -29
7 -124 1 -147 -10 -12 -5 -20 3 -33 33 -11 24 -15 44 -10 53 5 7 9 32 10 56 1
37 -1 42 -20 42 -12 0 -32 7 -44 16 -20 14 -32 14 -93 3 -53 -9 -72 -10 -81
-1 -7 7 -22 12 -35 12 -26 0 -31 15 -8 24 24 9 17 23 -16 35 -50 17 -65 14
-99 -25z"/>
<path d="M2302 6428 c6 -18 28 -21 28 -4 0 9 -7 16 -16 16 -9 0 -14 -5 -12
-12z"/>
<path d="M9242 6428 c6 -18 28 -21 28 -4 0 9 -7 16 -16 16 -9 0 -14 -5 -12
-12z"/>
<path d="M1847 6408 c-60 -21 -144 -88 -133 -107 4 -6 28 -9 54 -8 40 2 49 6
68 35 13 18 25 28 29 22 10 -16 22 -12 50 17 29 32 33 64 8 62 -10 -1 -44 -10
-76 -21z"/>
<path d="M2677 6411 c-2 -11 -15 -21 -28 -23 -15 -2 -25 -11 -27 -24 -3 -24
30 -41 87 -46 20 -2 37 -10 42 -20 5 -10 13 -26 18 -35 4 -10 21 -21 37 -24
16 -4 50 -12 77 -18 51 -12 225 -14 297 -3 38 6 46 11 48 32 2 14 8 30 14 37
17 20 0 35 -25 21 -14 -7 -84 -14 -183 -16 -175 -5 -163 -7 -211 51 -6 8 -34
17 -62 21 -55 7 -68 17 -46 36 8 7 12 16 9 21 -10 16 -42 9 -47 -10z"/>
<path d="M2840 6415 c0 -8 7 -15 15 -15 8 0 15 7 15 15 0 8 -7 15 -15 15 -8 0
-15 -7 -15 -15z"/>
<path d="M9460 6415 c0 -8 7 -15 15 -15 8 0 15 7 15 15 0 8 -7 15 -15 15 -8 0
-15 -7 -15 -15z"/>
<path d="M9200 6400 c0 -13 5 -20 13 -17 6 2 12 10 12 17 0 7 -6 15 -12 18 -8
2 -13 -5 -13 -18z"/>
<path d="M9855 6410 c-4 -6 -3 -16 3 -22 6 -6 12 -6 17 2 4 6 3 16 -3 22 -6 6
-12 6 -17 -2z"/>
<path d="M2000 6385 c0 -8 7 -15 15 -15 8 0 15 7 15 15 0 8 -7 15 -15 15 -8 0
-15 -7 -15 -15z"/>
<path d="M3490 6385 c0 -8 7 -15 15 -15 8 0 15 7 15 15 0 8 -7 15 -15 15 -8 0
-15 -7 -15 -15z"/>
<path d="M6955 6380 c-7 -12 2 -30 16 -30 5 0 9 9 9 20 0 21 -15 27 -25 10z"/>
<path d="M8405 6364 c-33 -13 -83 -23 -111 -23 -28 -1 -86 -12 -128 -26 -42
-14 -87 -25 -99 -25 -32 0 -49 -14 -41 -33 6 -16 -3 -29 -69 -106 -54 -64 -60
-102 -20 -120 24 -11 26 -14 10 -22 -37 -21 -16 -30 65 -27 87 3 106 15 59 36
-17 7 -31 21 -34 30 -13 59 140 212 212 212 28 0 211 58 239 76 24 16 22 28
-6 43 -11 6 -37 1 -77 -15z"/>
<path d="M11324 6379 c-10 -17 13 -36 27 -22 12 12 4 33 -11 33 -5 0 -12 -5
-16 -11z"/>
<path d="M2176 6354 c-3 -9 -6 -24 -6 -35 0 -30 -24 -33 -77 -9 -26 12 -71 24
-100 27 -49 5 -53 4 -64 -19 -8 -19 -8 -31 0 -47 11 -19 18 -21 64 -16 29 3
45 2 37 -1 -32 -14 -41 -26 -29 -40 16 -19 55 -17 130 5 35 11 83 22 106 26
51 8 82 37 63 60 -7 8 -21 15 -32 15 -11 0 -29 11 -40 25 -22 29 -43 32 -52 9z"/>
<path d="M2431 6356 c-16 -19 -3 -44 40 -80 49 -41 99 -31 99 21 0 38 -43 73
-88 73 -22 0 -45 -6 -51 -14z"/>
<path d="M9487 6364 c-9 -10 2 -24 19 -24 8 0 14 7 14 15 0 15 -21 21 -33 9z"/>
<path d="M2365 6350 c-8 -13 4 -32 16 -25 12 8 12 35 0 35 -6 0 -13 -4 -16
-10z"/>
<path d="M11445 6350 c-8 -13 4 -32 16 -25 12 8 12 35 0 35 -6 0 -13 -4 -16
-10z"/>
<path d="M10946 6331 c-41 -45 14 -124 64 -93 14 8 37 10 70 6 50 -7 61 1 38
24 -17 17 -3 25 20 11 23 -15 72 -4 72 16 0 26 -40 38 -109 32 -46 -4 -73 -1
-91 8 -34 19 -44 18 -64 -4z"/>
<path d="M10863 6314 c-8 -21 13 -42 28 -27 13 13 5 43 -11 43 -6 0 -13 -7
-17 -16z"/>
<path d="M1846 6313 c-12 -12 -6 -33 9 -33 8 0 15 6 15 14 0 17 -14 28 -24 19z"/>
<path d="M2595 6310 c-7 -12 2 -30 16 -30 12 0 12 27 0 35 -5 3 -12 1 -16 -5z"/>
<path d="M2390 6295 c0 -18 24 -30 40 -20 8 5 8 11 -1 21 -15 19 -39 18 -39
-1z"/>
<path d="M2645 6286 c-23 -16 -14 -42 19 -57 47 -22 83 15 51 51 -21 23 -44
25 -70 6z"/>
<path d="M5400 6285 c0 -8 7 -15 15 -15 8 0 15 7 15 15 0 8 -7 15 -15 15 -8 0
-15 -7 -15 -15z"/>
<path d="M11250 6292 c0 -19 43 -42 77 -42 68 0 42 39 -32 48 -29 3 -45 1 -45
-6z"/>
<path d="M2335 6280 c-7 -12 2 -30 16 -30 12 0 12 27 0 35 -5 3 -12 1 -16 -5z"/>
<path d="M8955 6280 c-7 -12 2 -30 16 -30 12 0 12 27 0 35 -5 3 -12 1 -16 -5z"/>
<path d="M5445 6260 c-3 -6 1 -13 10 -16 19 -8 30 0 20 15 -8 14 -22 14 -30 1z"/>
<path d="M6734 6249 c-10 -17 13 -36 27 -22 12 12 4 33 -11 33 -5 0 -12 -5
-16 -11z"/>
<path d="M1701 6213 c-14 -11 -24 -33 -28 -60 -4 -30 -11 -44 -29 -52 -32 -14
-30 -25 9 -50 17 -11 40 -26 49 -33 14 -10 26 -7 70 16 29 16 60 37 69 47 15
16 18 17 23 3 3 -9 6 -24 6 -35 0 -41 34 -59 118 -60 83 0 76 -17 -8 -18 -57
-1 -92 -11 -88 -23 2 -6 24 -18 49 -27 25 -10 59 -28 76 -41 29 -21 35 -22 95
-11 85 15 96 14 73 -3 -17 -12 -17 -14 -2 -37 18 -25 24 -94 7 -84 -5 3 -10
15 -10 25 0 34 -55 54 -142 52 -43 0 -78 2 -78 5 0 4 7 14 16 24 14 15 13 19
-12 38 -29 23 -46 26 -72 12 -12 -6 -35 -1 -77 17 -45 19 -80 27 -140 29 -44
1 -98 5 -120 8 -34 5 -48 1 -95 -29 -65 -43 -84 -46 -44 -8 l29 27 -27 3 c-14
2 -45 -6 -67 -18 -26 -13 -50 -18 -66 -14 -29 7 -30 3 -10 -51 17 -48 18 -65
5 -65 -5 0 -10 12 -10 28 0 42 -10 50 -95 77 -125 41 -193 56 -291 66 -50 4
-102 12 -115 17 -14 6 -34 6 -48 1 -17 -7 -31 -5 -50 8 -29 19 -88 33 -142 35
-36 2 -68 -8 -145 -43 -22 -11 -45 -19 -51 -19 -5 0 -18 -10 -29 -21 -10 -12
-41 -32 -69 -45 -27 -12 -58 -29 -69 -36 -17 -14 -16 -17 27 -54 43 -38 89
-66 131 -79 15 -4 17 -8 8 -17 -9 -9 -24 -9 -61 1 -54 14 -106 3 -144 -28 -17
-14 -17 -16 3 -35 12 -12 27 -30 34 -40 19 -28 129 -36 156 -11 27 24 38 10
19 -23 -9 -17 -32 -33 -64 -45 -58 -21 -84 -50 -85 -92 0 -40 53 -105 85 -105
13 0 30 -6 37 -14 28 -27 81 -48 125 -48 40 0 43 -1 37 -21 -11 -37 -46 -67
-126 -109 -43 -22 -78 -44 -78 -49 0 -16 32 -23 51 -11 26 17 36 15 42 -8 6
-22 15 -25 37 -10 13 9 13 12 -3 24 -20 16 -18 18 65 65 67 38 164 123 173
152 10 32 65 109 77 109 6 0 4 -8 -5 -18 -10 -10 -17 -31 -17 -47 0 -27 1 -27
43 -20 23 4 57 7 75 7 21 0 32 4 32 14 0 8 -7 14 -15 14 -8 0 -15 9 -15 20 0
13 7 20 20 20 11 0 20 -4 20 -8 0 -15 71 -41 165 -61 50 -11 117 -31 149 -46
33 -14 68 -24 78 -21 14 3 25 -5 39 -27 29 -48 23 -87 -8 -56 -11 11 -33 5
-33 -9 0 -11 61 -33 71 -26 5 3 9 12 9 19 0 10 10 8 36 -10 20 -14 41 -25 45
-25 15 0 10 -22 -8 -36 -24 -17 -10 -29 16 -14 19 10 21 8 21 -19 0 -16 -5
-33 -10 -36 -6 -4 -8 -11 -4 -16 3 -5 0 -16 -6 -24 -6 -8 -9 -19 -5 -25 10
-17 25 -11 25 10 0 22 7 25 30 10 12 -8 13 -13 3 -30 -21 -33 -16 -41 22 -34
34 6 44 -2 26 -21 -5 -6 -12 -24 -15 -41 -6 -27 -2 -35 31 -64 65 -58 155 -86
139 -44 -10 25 10 15 22 -11 19 -42 16 -58 -9 -44 -12 6 -25 7 -30 2 -13 -13
-30 -325 -20 -360 13 -46 40 -92 61 -106 11 -6 20 -21 20 -33 0 -36 71 -131
126 -169 30 -21 57 -48 63 -66 6 -16 16 -43 23 -60 6 -17 22 -47 35 -66 15
-22 21 -42 17 -55 -4 -14 3 -29 24 -52 17 -17 40 -52 51 -78 19 -44 78 -98
108 -98 22 0 25 21 6 43 -55 63 -179 305 -164 320 7 7 16 0 28 -23 10 -18 36
-59 58 -92 22 -33 53 -80 68 -106 16 -25 48 -71 72 -101 50 -64 66 -100 58
-130 -9 -34 59 -90 188 -155 108 -54 127 -60 189 -55 15 1 56 -17 100 -44 41
-25 101 -55 132 -67 61 -23 98 -65 98 -112 0 -31 24 -55 36 -37 5 9 13 5 28
-14 12 -14 45 -34 78 -44 57 -20 57 -20 78 1 16 16 24 18 38 10 26 -17 44 -82
40 -146 -4 -47 -11 -67 -46 -117 -64 -91 -91 -188 -60 -219 9 -9 8 -16 -5 -30
-21 -23 -21 -44 -1 -84 9 -17 42 -100 74 -185 32 -84 65 -164 74 -178 8 -13
58 -59 110 -102 l95 -78 -6 -85 c-3 -47 -13 -194 -23 -326 -17 -232 -19 -244
-51 -315 -39 -89 -50 -209 -33 -362 6 -57 5 -59 -15 -52 -23 7 -29 -9 -8 -22
17 -10 30 -60 18 -67 -5 -3 -14 1 -21 9 -18 22 -26 19 -40 -14 -13 -31 -7 -51
14 -51 12 0 66 -50 66 -62 0 -3 -9 -8 -20 -11 -17 -4 -20 -14 -20 -67 0 -55
-2 -61 -15 -50 -11 9 -19 10 -27 2 -14 -14 0 -35 19 -28 11 4 13 1 8 -14 -5
-17 -1 -21 24 -26 33 -7 76 -47 76 -71 0 -25 21 -27 44 -4 16 16 20 17 25 4
13 -32 6 -43 -25 -43 -48 0 -34 -32 21 -48 25 -8 55 -18 66 -24 24 -11 74 7
82 30 7 22 -94 112 -125 112 l-28 1 22 18 c12 10 26 36 32 58 6 22 20 48 31
58 11 10 20 24 20 30 0 7 16 32 35 56 42 52 43 66 10 79 -14 5 -30 22 -36 37
-9 24 -7 30 13 45 48 35 58 49 58 78 0 20 7 33 23 41 12 6 24 13 26 15 2 2 -8
17 -23 34 -34 41 -33 48 9 47 38 -1 75 25 75 54 0 23 19 32 92 48 100 21 131
68 93 141 l-15 28 45 0 c33 -1 53 5 79 25 38 30 108 136 155 237 28 59 30 69
19 103 -11 36 -10 39 18 62 16 14 48 34 71 45 23 12 47 27 53 35 7 8 28 17 49
20 68 11 81 22 117 99 31 65 37 91 49 211 13 125 16 138 42 168 63 72 97 138
101 197 4 56 4 58 -33 86 -21 16 -53 43 -71 60 -28 28 -42 33 -106 39 -81 8
-91 12 -155 61 -52 40 -84 43 -110 11 -18 -23 -53 -47 -69 -47 -5 0 7 13 26
28 55 47 19 94 -40 52 -17 -12 -34 -19 -37 -16 -8 8 37 56 60 65 17 7 17 8 -2
33 -12 14 -21 35 -21 46 0 55 -107 142 -174 142 -15 0 -37 5 -49 11 -31 16
-167 151 -167 166 0 7 -20 18 -45 24 -25 6 -45 15 -45 20 0 5 -7 9 -15 9 -13
0 -14 -4 -5 -20 9 -17 8 -20 -13 -20 -14 0 -30 7 -37 15 -7 8 -25 15 -40 15
-16 0 -42 12 -61 27 -21 18 -34 23 -37 15 -7 -23 -40 -57 -48 -49 -4 4 -2 13
4 19 16 16 15 38 -2 38 -7 0 -30 -14 -51 -30 -21 -17 -44 -29 -51 -26 -17 6
-54 -40 -61 -76 -7 -34 -8 -34 -45 -3 -33 28 -38 29 -91 14 -49 -13 -68 -6
-91 32 -16 27 -18 45 -13 121 l6 89 -27 11 c-15 7 -56 14 -92 17 -62 6 -65 7
-61 31 1 14 9 37 17 51 7 15 16 57 20 94 l7 68 -59 -7 c-66 -8 -94 -27 -94
-65 0 -44 -14 -54 -79 -59 -58 -4 -62 -3 -91 28 -57 61 -66 125 -45 313 7 70
57 103 142 93 29 -3 78 -9 108 -12 l55 -7 -2 34 -3 34 75 -3 c93 -4 114 -21
131 -100 14 -70 67 -134 93 -113 21 18 20 39 -9 151 -14 52 -25 103 -25 113 0
10 30 50 66 90 118 128 116 125 117 165 0 20 -3 55 -7 77 -5 31 -4 35 3 18 17
-37 34 -26 66 40 29 60 32 63 88 80 l58 19 -6 39 c-8 45 13 89 43 89 9 0 41
11 70 25 68 32 79 31 53 -1 -41 -53 -18 -78 37 -41 20 13 58 36 85 51 26 15
47 32 47 37 0 6 7 9 15 6 19 -8 28 8 20 33 -9 27 -31 25 -67 -5 -36 -31 -46
-31 -50 -2 -2 17 -9 21 -26 19 -13 -2 -32 4 -43 14 -23 20 -24 34 -4 34 22 0
39 38 24 56 -24 29 -121 3 -163 -45 -11 -11 -24 -21 -30 -21 -18 0 57 71 97
91 21 11 75 25 120 30 110 14 203 35 246 57 33 15 36 21 39 63 5 77 -24 91
-127 62 -17 -4 -22 -3 -17 5 4 6 22 14 41 18 62 11 63 30 3 61 -29 15 -61 31
-71 35 -9 4 -23 20 -29 35 -7 15 -22 41 -35 56 -12 15 -28 47 -34 70 -22 76
-40 84 -89 38 -36 -32 -104 -49 -126 -30 -16 13 -19 60 -4 75 16 16 1 43 -34
60 -17 9 -45 29 -62 46 -29 27 -35 29 -104 26 -66 -3 -75 -6 -93 -30 -15 -20
-21 -44 -22 -95 -1 -37 -7 -77 -12 -88 -9 -16 -6 -28 13 -60 29 -49 30 -84 3
-137 -12 -23 -24 -73 -29 -120 -9 -97 -18 -108 -59 -79 -56 40 -71 68 -71 132
0 56 -1 59 -27 64 -74 15 -134 38 -193 75 -36 22 -73 40 -82 40 -12 0 -18 8
-18 23 0 35 -23 60 -56 61 -24 1 -30 6 -32 28 -4 37 53 143 94 175 18 13 34
34 36 46 2 17 12 23 43 27 44 6 90 33 99 56 4 11 -3 19 -24 27 -40 15 -38 24
5 19 32 -4 35 -7 35 -37 0 -18 -9 -44 -21 -58 l-20 -27 33 -20 c43 -26 56 -25
89 6 25 24 30 25 62 13 38 -13 67 -7 67 14 0 23 -65 77 -116 95 -56 20 -64 43
-18 52 36 8 114 50 114 62 0 5 -7 22 -15 38 -9 17 -13 40 -10 53 7 25 -9 43
-60 71 -29 15 -28 15 45 10 82 -6 280 -62 280 -79 0 -6 -5 -16 -11 -22 -17
-17 -1 -35 20 -23 42 22 42 -39 1 -87 -17 -18 -30 -38 -30 -43 0 -6 -17 -10
-37 -10 -70 0 -112 -40 -82 -76 10 -12 26 -14 73 -9 51 5 66 3 91 -15 17 -11
45 -30 63 -41 17 -12 32 -25 32 -29 0 -5 22 -13 49 -19 26 -5 71 -19 100 -31
28 -11 54 -20 56 -20 11 0 4 29 -11 41 -14 11 -13 14 10 26 44 23 32 57 -45
140 -53 56 -58 68 -33 77 27 10 33 7 79 -36 l46 -41 24 23 c14 13 25 29 25 36
0 6 11 15 25 18 14 4 25 10 25 15 0 14 -59 61 -76 61 -9 0 -30 11 -47 24 -18
13 -49 27 -69 30 -45 8 -58 24 -34 42 11 8 16 20 12 31 -9 27 -69 64 -116 70
-38 5 -40 6 -20 20 31 22 14 36 -34 29 -38 -6 -47 -3 -96 34 -47 35 -60 41
-90 36 -19 -3 -43 -15 -53 -28 -17 -21 -19 -21 -47 -5 -15 9 -36 17 -45 17
-13 0 -16 8 -13 36 5 55 -18 64 -84 36 -45 -19 -53 -20 -61 -7 -18 32 -121 6
-152 -39 -29 -40 -17 -95 33 -148 23 -25 33 -28 86 -28 53 0 58 -1 41 -14 -16
-12 -17 -18 -7 -40 13 -28 0 -45 -22 -27 -14 12 -26 5 -26 -16 0 -7 7 -13 16
-13 9 0 14 -6 12 -12 -3 -7 -13 -13 -24 -13 -14 0 -20 9 -25 37 -6 40 -33 78
-55 78 -8 0 -21 -11 -30 -25 -20 -30 -34 -32 -34 -5 0 11 -9 25 -20 32 -11 7
-20 22 -20 34 0 12 -14 38 -30 59 -17 21 -28 43 -25 49 3 6 8 19 11 28 3 10
14 20 25 23 26 9 69 63 63 80 -7 17 -78 21 -118 5 -38 -14 -48 -41 -36 -95 10
-44 9 -48 -22 -86 -29 -36 -31 -43 -21 -69 10 -25 9 -30 -5 -30 -8 0 -24 7
-33 16 -20 18 -25 16 -83 -30 -21 -17 -14 -36 15 -36 10 0 19 -7 19 -15 0 -20
-74 -38 -133 -32 -53 5 -69 14 -47 27 11 7 12 12 3 21 -15 15 -34 2 -26 -19 5
-13 0 -12 -19 6 -14 12 -45 26 -69 31 -42 8 -43 8 -16 16 39 11 99 1 152 -25
53 -26 65 -21 41 15 -17 26 -14 45 8 45 6 0 17 5 24 12 18 18 -5 38 -42 38
-46 0 -72 23 -91 79 -13 40 -14 55 -5 72 10 17 9 24 -4 37 -12 13 -18 13 -31
2 -8 -7 -13 -15 -10 -18 3 -3 -8 -11 -25 -18 -21 -9 -32 -22 -36 -44 l-6 -30
-34 29 c-42 38 -74 48 -85 28 -7 -12 -14 -13 -43 -3 -18 6 -40 17 -49 24 -8 7
-21 10 -30 6 -10 -3 -17 2 -21 14 -9 28 -70 50 -157 57 -64 5 -78 4 -98 -12z"/>
<path d="M10852 6216 c1 -10 8 -17 13 -17 15 1 12 24 -3 29 -9 3 -13 -2 -10
-12z"/>
<path d="M2527 6187 c-41 -18 -48 -25 -44 -45 4 -18 1 -22 -12 -16 -35 14 -51
16 -51 5 0 -16 56 -67 107 -98 43 -25 43 -25 74 -6 50 29 57 48 31 76 -17 18
-21 31 -16 51 6 27 -9 57 -30 55 -6 -1 -33 -11 -59 -22z"/>
<path d="M8544 6189 c-10 -17 13 -36 27 -22 12 12 4 33 -11 33 -5 0 -12 -5
-16 -11z"/>
<path d="M3190 6175 c-10 -12 -10 -21 -2 -40 10 -21 18 -25 57 -25 47 0 85 13
85 30 0 14 -75 50 -103 50 -14 0 -30 -7 -37 -15z"/>
<path d="M8735 6180 c-10 -17 12 -37 25 -24 8 8 6 15 -4 23 -10 9 -16 9 -21 1z"/>
<path d="M12403 6025 c-36 -15 -43 -39 -16 -49 22 -9 98 3 119 18 15 12 15 14
-1 29 -20 20 -59 21 -102 2z"/>
<path d="M12575 6030 c-8 -13 4 -32 16 -25 12 8 12 35 0 35 -6 0 -13 -4 -16
-10z"/>
<path d="M1490 5995 c0 -8 7 -15 15 -15 8 0 15 7 15 15 0 8 -7 15 -15 15 -8 0
-15 -7 -15 -15z"/>
<path d="M5780 5995 c0 -8 7 -15 15 -15 8 0 15 7 15 15 0 8 -7 15 -15 15 -8 0
-15 -7 -15 -15z"/>
<path d="M5735 5971 c-7 -12 12 -24 25 -16 11 7 4 25 -10 25 -5 0 -11 -4 -15
-9z"/>
<path d="M8134 5968 c-7 -11 41 -58 59 -58 20 0 19 34 -2 52 -27 21 -47 23
-57 6z"/>
<path d="M6704 5959 c-10 -17 13 -36 27 -22 12 12 4 33 -11 33 -5 0 -12 -5
-16 -11z"/>
<path d="M4133 5914 c-8 -20 21 -49 41 -41 21 8 21 43 0 51 -25 9 -34 7 -41
-10z"/>
<path d="M7791 5911 c-23 -23 -26 -37 -10 -47 18 -11 60 18 57 40 -4 28 -23
31 -47 7z"/>
<path d="M3214 5899 c-8 -14 18 -31 30 -19 9 9 0 30 -14 30 -5 0 -12 -5 -16
-11z"/>
<path d="M3300 5866 c0 -8 4 -18 10 -21 6 -4 5 -13 -2 -24 -16 -25 -3 -51 25
-51 48 0 64 49 22 68 -14 6 -24 17 -23 24 2 6 -5 14 -14 16 -11 2 -18 -2 -18
-12z"/>
<path d="M6575 5870 c-3 -6 1 -13 10 -16 19 -8 30 0 20 15 -8 14 -22 14 -30 1z"/>
<path d="M3230 5835 c0 -8 7 -15 15 -15 8 0 15 7 15 15 0 8 -7 15 -15 15 -8 0
-15 -7 -15 -15z"/>
<path d="M6517 5844 c-9 -10 2 -24 19 -24 8 0 14 7 14 15 0 15 -21 21 -33 9z"/>
<path d="M5406 5728 c-42 -7 -64 -16 -80 -35 -13 -15 -42 -30 -71 -37 -62 -16
-68 -32 -16 -46 24 -6 41 -17 41 -25 0 -8 18 -20 40 -26 35 -11 50 -10 98 5
70 22 149 64 156 83 3 8 -8 32 -26 54 -34 43 -39 44 -142 27z"/>
<path d="M5215 5707 c-25 -19 -11 -37 29 -37 32 0 73 30 59 43 -11 12 -68 8
-88 -6z"/>
<path d="M6391 5596 c-9 -10 -9 -16 -1 -21 17 -10 37 12 24 25 -8 8 -15 6 -23
-4z"/>
<path d="M0 5545 c0 -19 35 -37 67 -33 36 4 39 22 8 36 -36 17 -75 15 -75 -3z"/>
<path d="M3317 5554 c-9 -10 2 -24 19 -24 8 0 14 7 14 15 0 15 -21 21 -33 9z"/>
<path d="M3262 5536 c1 -10 8 -17 13 -17 15 1 12 24 -3 29 -9 3 -13 -2 -10
-12z"/>
<path d="M3202 5495 c-12 -22 -4 -57 12 -52 15 5 20 47 8 59 -7 7 -13 4 -20
-7z"/>
<path d="M3077 5493 c-14 -13 -7 -33 11 -33 19 0 42 18 42 32 0 10 -44 11 -53
1z"/>
<path d="M5797 5483 c-2 -5 -7 -25 -11 -45 -5 -28 -3 -38 6 -38 14 0 40 69 32
82 -6 10 -22 10 -27 1z"/>
<path d="M5993 5384 c-8 -21 13 -42 28 -27 13 13 5 43 -11 43 -6 0 -13 -7 -17
-16z"/>
<path d="M3625 5380 c-8 -13 4 -32 16 -25 12 8 12 35 0 35 -6 0 -13 -4 -16
-10z"/>
<path d="M6752 5376 c1 -10 8 -17 13 -17 15 1 12 24 -3 29 -9 3 -13 -2 -10
-12z"/>
<path d="M142 5358 c5 -15 28 -18 29 -3 0 6 -7 12 -17 13 -10 3 -15 -1 -12
-10z"/>
<path d="M5923 5310 c-53 -32 -82 -86 -80 -147 1 -33 9 -58 20 -71 15 -16 16
-25 8 -41 -8 -14 -8 -22 0 -26 12 -8 12 -8 25 25 l11 25 12 -22 c10 -19 8 -26
-11 -45 -13 -13 -29 -34 -36 -48 -11 -21 -11 -26 4 -37 10 -7 23 -13 28 -13 6
0 -3 -9 -20 -19 -64 -39 -48 -64 31 -50 28 4 71 11 98 14 68 9 104 45 98 101
0 7 -12 15 -26 18 -14 4 -25 13 -25 22 0 25 -30 77 -68 116 l-36 38 17 35 c15
31 15 36 2 41 -8 4 -24 4 -35 1 -26 -7 -25 -1 7 45 33 48 21 66 -24 38z"/>
<path d="M305 5280 c-7 -12 2 -30 16 -30 5 0 9 9 9 20 0 21 -15 27 -25 10z"/>
<path d="M5794 5279 c-10 -17 13 -36 27 -22 12 12 4 33 -11 33 -5 0 -12 -5
-16 -11z"/>
<path d="M6837 5275 c-8 -18 11 -31 25 -17 11 11 3 32 -12 32 -4 0 -10 -7 -13
-15z"/>
<path d="M635 5252 c-41 -25 -56 -45 -46 -61 11 -17 41 -2 70 35 36 46 26 56
-24 26z"/>
<path d="M1215 5231 c-3 -5 -1 -12 5 -16 12 -7 30 2 30 16 0 12 -27 12 -35 0z"/>
<path d="M5795 5219 c-10 -15 1 -23 20 -15 9 3 13 10 10 16 -8 13 -22 13 -30
-1z"/>
<path d="M6697 5223 c-4 -3 -7 -15 -7 -25 0 -21 25 -24 33 -4 6 16 -16 40 -26
29z"/>
<path d="M34 5176 c-8 -22 3 -33 18 -18 9 9 9 15 0 24 -9 9 -13 7 -18 -6z"/>
<path d="M565 5159 c-10 -15 1 -23 20 -15 9 3 13 10 10 16 -8 13 -22 13 -30
-1z"/>
<path d="M3205 5150 c-7 -12 2 -30 16 -30 12 0 12 27 0 35 -5 3 -12 1 -16 -5z"/>
<path d="M1327 5133 c-4 -3 -7 -17 -7 -30 0 -28 23 -27 28 1 4 20 -11 40 -21
29z"/>
<path d="M534 5119 c-10 -17 13 -36 27 -22 12 12 4 33 -11 33 -5 0 -12 -5 -16
-11z"/>
<path d="M11904 5119 c-10 -17 13 -36 27 -22 12 12 4 33 -11 33 -5 0 -12 -5
-16 -11z"/>
<path d="M5750 5088 c-54 -60 -55 -62 -55 -123 0 -58 1 -60 24 -57 40 4 110
54 121 86 19 54 13 84 -20 101 -38 20 -46 19 -70 -7z"/>
<path d="M6440 5091 c0 -11 4 -22 8 -25 14 -9 35 12 29 28 -9 23 -37 20 -37
-3z"/>
<path d="M6565 5090 c-8 -13 4 -32 16 -25 12 8 12 35 0 35 -6 0 -13 -4 -16
-10z"/>
<path d="M230 5065 c0 -8 7 -15 15 -15 8 0 15 7 15 15 0 8 -7 15 -15 15 -8 0
-15 -7 -15 -15z"/>
<path d="M11980 5056 c0 -9 7 -16 16 -16 17 0 14 22 -4 28 -7 2 -12 -3 -12
-12z"/>
<path d="M133 5044 c-8 -20 17 -36 34 -22 10 8 10 14 2 24 -15 18 -28 18 -36
-2z"/>
<path d="M1315 5040 c-8 -14 3 -30 21 -30 8 0 14 9 14 20 0 21 -24 28 -35 10z"/>
<path d="M70 4995 c0 -8 7 -15 15 -15 8 0 15 7 15 15 0 8 -7 15 -15 15 -8 0
-15 -7 -15 -15z"/>
<path d="M3132 4987 c-9 -10 -7 -19 4 -35 17 -25 34 -21 34 7 0 27 -24 45 -38
28z"/>
<path d="M12155 4990 c-7 -12 2 -30 16 -30 5 0 9 9 9 20 0 21 -15 27 -25 10z"/>
<path d="M1330 4963 c1 -29 39 -105 50 -98 15 9 12 68 -6 93 -18 26 -44 29
-44 5z"/>
<path d="M11542 4858 c2 -12 10 -23 18 -23 22 0 19 39 -3 43 -15 3 -18 -1 -15
-20z"/>
<path d="M4012 4820 c-99 -72 -84 -141 24 -111 49 14 57 14 49 0 -4 -5 -4 -22
0 -36 l6 -26 23 22 c16 15 26 19 31 12 8 -15 25 -4 25 16 0 9 -6 13 -15 9 -11
-4 -15 2 -15 24 0 39 -24 60 -67 60 -34 0 -35 1 -20 18 18 20 22 42 9 42 -5 0
-28 -13 -50 -30z"/>
<path d="M3776 4801 c-11 -17 54 -54 78 -45 24 9 19 29 -9 42 -31 14 -62 15
-69 3z"/>
<path d="M11514 4799 c-10 -17 13 -36 27 -22 12 12 4 33 -11 33 -5 0 -12 -5
-16 -11z"/>
<path d="M11475 4760 c-7 -12 2 -30 16 -30 12 0 12 27 0 35 -5 3 -12 1 -16 -5z"/>
<path d="M11432 4696 c1 -10 8 -17 13 -17 15 1 12 24 -3 29 -9 3 -13 -2 -10
-12z"/>
<path d="M4025 4681 c-3 -5 -1 -12 5 -16 12 -7 30 2 30 16 0 12 -27 12 -35 0z"/>
<path d="M11340 4635 c0 -8 7 -15 15 -15 8 0 15 7 15 15 0 8 -7 15 -15 15 -8
0 -15 -7 -15 -15z"/>
<path d="M11285 4600 c-4 -7 -3 -16 3 -22 14 -14 45 -2 40 15 -6 16 -34 21
-43 7z"/>
<path d="M11067 4593 c-4 -3 -7 -18 -7 -32 0 -31 -9 -45 -32 -54 -24 -9 -23
-59 0 -80 24 -22 29 -21 35 2 3 14 11 18 24 15 12 -3 36 5 59 20 57 38 64 45
64 66 0 16 -7 20 -33 20 -23 0 -41 8 -57 25 -23 25 -41 31 -53 18z"/>
<path d="M11245 4570 c-4 -6 -3 -16 3 -22 6 -6 12 -6 17 2 4 6 3 16 -3 22 -6
6 -12 6 -17 -2z"/>
<path d="M11227 4514 c-13 -13 -7 -24 14 -24 11 0 19 5 17 12 -5 14 -22 21
-31 12z"/>
<path d="M6355 4460 c-8 -14 3 -30 21 -30 8 0 14 9 14 20 0 21 -24 28 -35 10z"/>
<path d="M6347 4383 c-4 -3 -7 -24 -7 -45 0 -30 4 -38 18 -38 20 0 52 29 52
47 0 12 -33 43 -47 43 -5 0 -13 -3 -16 -7z"/>
<path d="M11012 4373 c-5 -10 -13 -40 -16 -66 -6 -41 -10 -47 -27 -42 -27 9
-43 -3 -28 -21 17 -21 -7 -46 -37 -38 -19 5 -26 1 -35 -20 -7 -14 -19 -28 -28
-30 -9 -3 -36 -10 -61 -16 -24 -7 -60 -25 -78 -41 -37 -33 -36 -33 -63 -19
-26 15 -26 -12 2 -57 12 -19 19 -43 16 -54 -17 -64 32 -65 64 -2 18 37 31 49
53 53 41 7 57 35 31 54 -13 10 -15 15 -7 16 8 0 26 -13 40 -30 l26 -30 24 23
c16 15 40 23 79 27 l56 5 22 80 c12 44 27 90 33 102 18 33 14 81 -8 103 -25
25 -46 26 -58 3z"/>
<path d="M6183 4348 c-28 -13 -32 -44 -5 -33 9 4 25 10 35 12 19 6 24 33 5 32
-7 0 -23 -5 -35 -11z"/>
<path d="M6097 4294 c-9 -10 2 -24 19 -24 8 0 14 7 14 15 0 15 -21 21 -33 9z"/>
<path d="M6762 4228 c5 -15 28 -18 29 -3 0 6 -7 12 -17 13 -10 3 -15 -1 -12
-10z"/>
<path d="M6460 4185 c0 -8 7 -15 15 -15 8 0 15 7 15 15 0 8 -7 15 -15 15 -8 0
-15 -7 -15 -15z"/>
<path d="M6980 4185 c0 -8 7 -15 15 -15 8 0 15 7 15 15 0 8 -7 15 -15 15 -8 0
-15 -7 -15 -15z"/>
<path d="M6914 4176 c-8 -22 3 -33 18 -18 9 9 9 15 0 24 -9 9 -13 7 -18 -6z"/>
<path d="M7203 4134 c-8 -22 11 -37 36 -29 25 8 28 30 5 39 -25 9 -34 7 -41
-10z"/>
<path d="M6530 4125 c0 -8 7 -15 15 -15 8 0 15 7 15 15 0 8 -7 15 -15 15 -8 0
-15 -7 -15 -15z"/>
<path d="M6474 4119 c-3 -6 -1 -16 5 -22 9 -9 14 -8 21 3 9 15 4 30 -10 30 -5
0 -12 -5 -16 -11z"/>
<path d="M6912 4113 c2 -12 12 -18 28 -18 36 0 33 29 -3 33 -23 3 -28 0 -25
-15z"/>
<path d="M10530 4025 c0 -8 7 -15 15 -15 8 0 15 7 15 15 0 8 -7 15 -15 15 -8
0 -15 -7 -15 -15z"/>
<path d="M3720 3995 c0 -8 7 -15 15 -15 8 0 15 7 15 15 0 8 -7 15 -15 15 -8 0
-15 -7 -15 -15z"/>
<path d="M5435 3990 c-8 -13 4 -32 16 -25 12 8 12 35 0 35 -6 0 -13 -4 -16
-10z"/>
<path d="M10592 3986 c1 -10 8 -17 13 -17 15 1 12 24 -3 29 -9 3 -13 -2 -10
-12z"/>
<path d="M5402 3808 c6 -18 28 -21 28 -4 0 9 -7 16 -16 16 -9 0 -14 -5 -12
-12z"/>
<path d="M5535 3800 c-8 -13 4 -32 16 -25 12 8 12 35 0 35 -6 0 -13 -4 -16
-10z"/>
<path d="M10632 3794 c4 -21 22 -23 26 -1 2 10 -3 17 -13 17 -10 0 -15 -6 -13
-16z"/>
<path d="M5466 3793 c-12 -12 -6 -33 9 -33 8 0 15 6 15 14 0 17 -14 28 -24 19z"/>
<path d="M3244 3759 c-8 -14 11 -33 25 -25 11 7 4 36 -9 36 -5 0 -12 -5 -16
-11z"/>
<path d="M5405 3760 c-7 -12 2 -30 16 -30 12 0 12 27 0 35 -5 3 -12 1 -16 -5z"/>
<path d="M3300 3735 c0 -8 7 -15 15 -15 8 0 15 7 15 15 0 8 -7 15 -15 15 -8 0
-15 -7 -15 -15z"/>
<path d="M10573 3743 c-18 -7 -16 -53 2 -53 17 0 39 36 30 50 -7 11 -13 11
-32 3z"/>
<path d="M7964 3699 c-8 -14 18 -31 30 -19 9 9 0 30 -14 30 -5 0 -12 -5 -16
-11z"/>
<path d="M3242 3678 c5 -15 28 -18 29 -3 0 6 -7 12 -17 13 -10 3 -15 -1 -12
-10z"/>
<path d="M3315 3681 c-3 -5 -1 -12 5 -16 12 -7 30 2 30 16 0 12 -27 12 -35 0z"/>
<path d="M10491 3656 c-9 -10 -9 -16 -1 -21 17 -10 37 12 24 25 -8 8 -15 6
-23 -4z"/>
<path d="M10326 3638 c-17 -24 -21 -85 -7 -107 23 -36 51 16 51 95 0 40 -21
46 -44 12z"/>
<path d="M3275 3639 c-10 -15 1 -23 20 -15 9 3 13 10 10 16 -8 13 -22 13 -30
-1z"/>
<path d="M3347 3644 c-13 -13 -7 -24 14 -24 11 0 19 5 17 12 -5 14 -22 21 -31
12z"/>
<path d="M10430 3635 c0 -8 7 -15 15 -15 8 0 15 7 15 15 0 8 -7 15 -15 15 -8
0 -15 -7 -15 -15z"/>
<path d="M3317 3595 c-7 -16 8 -29 22 -20 5 3 12 1 16 -5 10 -15 35 -12 35 5
0 8 -9 15 -19 15 -11 0 -23 5 -26 10 -9 14 -22 12 -28 -5z"/>
<path d="M3070 3562 l-24 -19 32 -17 c18 -9 32 -23 32 -32 0 -8 5 -12 10 -9 6
3 7 17 4 31 -6 23 -4 24 19 15 74 -28 145 -72 150 -92 5 -20 10 -21 49 -15 88
14 72 42 -63 106 -109 52 -173 62 -209 32z"/>
<path d="M3420 3545 c0 -8 7 -15 15 -15 8 0 15 7 15 15 0 8 -7 15 -15 15 -8 0
-15 -7 -15 -15z"/>
<path d="M392 3534 c4 -21 22 -23 26 -1 2 10 -3 17 -13 17 -10 0 -15 -6 -13
-16z"/>
<path d="M3474 3539 c-8 -14 18 -31 30 -19 9 9 0 30 -14 30 -5 0 -12 -5 -16
-11z"/>
<path d="M434 3509 c-9 -15 12 -33 30 -26 9 4 16 13 16 22 0 17 -35 21 -46 4z"/>
<path d="M3451 3496 c-9 -10 -9 -16 -1 -21 17 -10 37 12 24 25 -8 8 -15 6 -23
-4z"/>
<path d="M507 3484 c-3 -4 -2 -15 4 -26 5 -10 8 -22 5 -27 -3 -4 1 -17 9 -27
13 -18 15 -18 31 -2 16 16 16 19 2 35 -8 10 -18 26 -21 36 -7 17 -19 22 -30
11z"/>
<path d="M9905 3430 c-21 -23 -14 -50 13 -50 25 0 56 35 49 55 -9 21 -40 19
-62 -5z"/>
<path d="M3436 3399 c-23 -25 -26 -33 -15 -40 16 -10 128 -10 174 0 68 14 12
62 -80 68 -45 3 -53 0 -79 -28z"/>
<path d="M3664 3379 c-9 -15 12 -33 30 -26 9 4 16 13 16 22 0 17 -35 21 -46 4z"/>
<path d="M10319 3374 c-7 -9 -15 -48 -17 -86 -5 -78 7 -99 63 -118 36 -12 50
-34 69 -105 7 -31 18 -50 27 -50 15 0 16 18 4 48 -5 13 -2 17 14 17 37 0 24
30 -44 101 -36 38 -65 75 -65 81 0 6 6 19 14 27 24 27 29 66 11 85 -21 21 -59
21 -76 0z"/>
<path d="M3267 3373 c-4 -3 -7 -12 -7 -20 0 -16 46 -18 56 -2 11 19 -33 39
-49 22z"/>
<path d="M3735 3350 c-3 -6 1 -13 10 -16 19 -8 30 0 20 15 -8 14 -22 14 -30 1z"/>
<path d="M3015 3340 c-7 -12 2 -30 16 -30 12 0 12 27 0 35 -5 3 -12 1 -16 -5z"/>
<path d="M3794 3339 c-10 -17 13 -36 27 -22 12 12 4 33 -11 33 -5 0 -12 -5
-16 -11z"/>
<path d="M3850 3315 c0 -10 7 -15 18 -13 21 4 19 22 -2 26 -10 2 -16 -3 -16
-13z"/>
<path d="M5140 3285 c0 -8 7 -15 15 -15 8 0 15 7 15 15 0 8 -7 15 -15 15 -8 0
-15 -7 -15 -15z"/>
<path d="M5232 3276 c1 -10 8 -17 13 -17 15 1 12 24 -3 29 -9 3 -13 -2 -10
-12z"/>
<path d="M3850 3255 c0 -10 7 -15 18 -13 21 4 19 22 -2 26 -10 2 -16 -3 -16
-13z"/>
<path d="M11212 3244 c4 -21 22 -23 26 -1 2 10 -3 17 -13 17 -10 0 -15 -6 -13
-16z"/>
<path d="M11984 3236 c-8 -22 3 -33 18 -18 9 9 9 15 0 24 -9 9 -13 7 -18 -6z"/>
<path d="M5170 3215 c0 -8 7 -15 15 -15 8 0 15 7 15 15 0 8 -7 15 -15 15 -8 0
-15 -7 -15 -15z"/>
<path d="M5227 3224 c-9 -10 2 -24 19 -24 8 0 14 7 14 15 0 15 -21 21 -33 9z"/>
<path d="M3871 3211 c-7 -5 -11 -13 -7 -19 3 -6 2 -13 -4 -17 -17 -11 -11 -37
8 -33 9 2 16 10 14 17 -1 7 3 20 9 27 15 18 0 37 -20 25z"/>
<path d="M10461 3206 c-9 -10 -9 -16 -1 -21 17 -10 37 12 24 25 -8 8 -15 6
-23 -4z"/>
<path d="M11167 3194 c-9 -10 2 -24 19 -24 8 0 14 7 14 15 0 15 -21 21 -33 9z"/>
<path d="M3924 3149 c-10 -17 13 -36 27 -22 12 12 4 33 -11 33 -5 0 -12 -5
-16 -11z"/>
<path d="M10323 3144 c-8 -21 13 -42 28 -27 13 13 5 43 -11 43 -6 0 -13 -7
-17 -16z"/>
<path d="M3605 3131 c-3 -5 -1 -12 5 -16 12 -7 30 2 30 16 0 12 -27 12 -35 0z"/>
<path d="M9312 3128 c5 -15 28 -18 29 -3 0 6 -7 12 -17 13 -10 3 -15 -1 -12
-10z"/>
<path d="M3665 3119 c-10 -15 1 -23 20 -15 9 3 13 10 10 16 -8 13 -22 13 -30
-1z"/>
<path d="M7935 3120 c-3 -6 1 -13 10 -16 19 -8 30 0 20 15 -8 14 -22 14 -30 1z"/>
<path d="M3840 3094 c0 -9 5 -14 12 -12 18 6 21 28 4 28 -9 0 -16 -7 -16 -16z"/>
<path d="M10282 3098 c5 -15 28 -18 29 -3 0 6 -7 12 -17 13 -10 3 -15 -1 -12
-10z"/>
<path d="M9315 3080 c-10 -17 12 -37 25 -24 8 8 6 15 -4 23 -10 9 -16 9 -21 1z"/>
<path d="M10376 3083 c-12 -12 -6 -33 9 -33 8 0 15 6 15 14 0 17 -14 28 -24
19z"/>
<path d="M3880 3055 c0 -8 7 -15 15 -15 8 0 15 7 15 15 0 8 -7 15 -15 15 -8 0
-15 -7 -15 -15z"/>
<path d="M10235 3037 c-8 -13 -18 -37 -21 -55 -5 -25 -3 -32 9 -32 19 0 57 59
57 89 0 28 -26 27 -45 -2z"/>
<path d="M10500 3025 c0 -8 7 -15 15 -15 8 0 15 7 15 15 0 8 -7 15 -15 15 -8
0 -15 -7 -15 -15z"/>
<path d="M9704 3019 c-10 -17 13 -36 27 -22 12 12 4 33 -11 33 -5 0 -12 -5
-16 -11z"/>
<path d="M10380 3004 c0 -3 4 -13 10 -23 6 -13 5 -24 -5 -37 -19 -25 -19 -64
-1 -64 8 0 18 5 21 10 11 17 23 11 37 -17 18 -38 50 -41 77 -7 23 29 27 64 10
95 -9 17 -17 19 -55 13 -39 -6 -47 -4 -60 15 -14 19 -34 29 -34 15z"/>
<path d="M8877 2972 c-24 -26 -22 -94 3 -117 18 -17 21 -17 45 -1 31 20 33 58
5 104 -23 37 -31 39 -53 14z"/>
<path d="M11485 2971 c-3 -5 -1 -12 5 -16 12 -7 30 2 30 16 0 12 -27 12 -35 0z"/>
<path d="M12092 2968 c5 -15 28 -18 29 -3 0 6 -7 12 -17 13 -10 3 -15 -1 -12
-10z"/>
<path d="M8624 2946 c-8 -22 3 -33 18 -18 9 9 9 15 0 24 -9 9 -13 7 -18 -6z"/>
<path d="M11384 2949 c-8 -14 11 -33 25 -25 6 4 11 11 11 16 0 13 -29 20 -36
9z"/>
<path d="M11440 2925 c0 -10 7 -15 18 -13 21 4 19 22 -2 26 -10 2 -16 -3 -16
-13z"/>
<path d="M8620 2880 c0 -13 5 -20 13 -17 6 2 12 10 12 17 0 7 -6 15 -12 18 -8
2 -13 -5 -13 -18z"/>
<path d="M10807 2894 c-11 -11 -8 -52 4 -60 14 -8 30 15 27 40 -3 21 -20 31
-31 20z"/>
<path d="M10147 2847 c-20 -24 -57 -59 -83 -78 -26 -19 -61 -48 -78 -65 -18
-17 -43 -34 -58 -37 -59 -15 -37 -115 46 -204 25 -28 37 -33 75 -33 26 0 53
-4 60 -9 26 -16 71 25 71 63 0 18 9 45 20 59 11 14 20 30 20 35 0 6 12 24 26
41 19 23 23 35 16 48 -5 10 -7 23 -5 30 2 6 -5 18 -17 26 l-21 15 30 34 30 35
-42 41 c-24 23 -45 42 -49 42 -3 0 -22 -19 -41 -43z"/>
<path d="M9355 2871 c-3 -5 -1 -12 5 -16 12 -7 30 2 30 16 0 12 -27 12 -35 0z"/>
<path d="M11037 2874 c-9 -10 2 -24 19 -24 8 0 14 7 14 15 0 15 -21 21 -33 9z"/>
<path d="M11280 2865 c0 -8 7 -15 15 -15 8 0 15 7 15 15 0 8 -7 15 -15 15 -8
0 -15 -7 -15 -15z"/>
<path d="M10312 2838 c5 -15 28 -18 29 -3 0 6 -7 12 -17 13 -10 3 -15 -1 -12
-10z"/>
<path d="M11222 2838 c5 -15 28 -18 29 -3 0 6 -7 12 -17 13 -10 3 -15 -1 -12
-10z"/>
<path d="M8637 2833 c-12 -11 -8 -23 8 -23 8 0 15 7 15 15 0 16 -12 20 -23 8z"/>
<path d="M9430 2812 c0 -5 19 -33 41 -63 23 -30 52 -77 64 -104 13 -28 31 -57
40 -65 10 -8 26 -34 36 -57 9 -22 47 -72 83 -110 l66 -68 20 24 c11 13 20 33
20 45 1 11 7 32 15 46 12 22 11 27 -2 43 -9 9 -24 17 -33 17 -18 0 -70 50 -70
67 0 14 -176 205 -203 220 -25 14 -77 17 -77 5z"/>
<path d="M11820 2805 c0 -8 7 -15 15 -15 8 0 15 7 15 15 0 8 -7 15 -15 15 -8
0 -15 -7 -15 -15z"/>
<path d="M8617 2774 c-9 -10 2 -24 19 -24 8 0 14 7 14 15 0 15 -21 21 -33 9z"/>
<path d="M9864 2759 c-10 -17 13 -36 27 -22 12 12 4 33 -11 33 -5 0 -12 -5
-16 -11z"/>
<path d="M6315 2741 c-7 -12 12 -24 25 -16 11 7 4 25 -10 25 -5 0 -11 -4 -15
-9z"/>
<path d="M9430 2705 c0 -8 7 -15 15 -15 8 0 15 7 15 15 0 8 -7 15 -15 15 -8 0
-15 -7 -15 -15z"/>
<path d="M10590 2705 c0 -8 7 -15 15 -15 8 0 15 7 15 15 0 8 -7 15 -15 15 -8
0 -15 -7 -15 -15z"/>
<path d="M6283 2678 c2 -7 10 -13 17 -13 7 0 15 6 18 13 2 7 -5 12 -18 12 -13
0 -20 -5 -17 -12z"/>
<path d="M2814 2656 c-8 -22 3 -33 18 -18 9 9 9 15 0 24 -9 9 -13 7 -18 -6z"/>
<path d="M10572 2658 c-7 -7 -12 -33 -12 -59 0 -91 40 -137 45 -54 2 22 6 55
10 74 6 24 4 36 -6 42 -18 12 -23 11 -37 -3z"/>
<path d="M9485 2640 c-3 -6 1 -13 10 -16 19 -8 30 0 20 15 -8 14 -22 14 -30 1z"/>
<path d="M10323 2640 c-28 -11 -48 -50 -62 -121 -8 -39 -9 -64 -1 -83 5 -15
10 -38 10 -50 0 -28 38 -79 52 -70 6 4 9 31 5 70 -5 71 9 88 19 23 4 -22 14
-47 22 -56 14 -14 18 -13 34 7 31 38 19 85 -31 127 -28 23 -23 29 29 35 45 5
29 32 -23 40 -54 7 -62 12 -52 27 3 6 30 11 60 11 58 0 108 17 102 34 -5 14
-134 18 -164 6z"/>
<path d="M12120 2635 c0 -10 7 -15 18 -13 21 4 19 22 -2 26 -10 2 -16 -3 -16
-13z"/>
<path d="M6245 2630 c-7 -12 2 -30 16 -30 12 0 12 27 0 35 -5 3 -12 1 -16 -5z"/>
<path d="M10644 2599 c-10 -17 13 -36 27 -22 12 12 4 33 -11 33 -5 0 -12 -5
-16 -11z"/>
<path d="M2750 2571 c0 -11 4 -22 9 -25 12 -8 34 21 26 34 -11 17 -35 11 -35
-9z"/>
<path d="M2810 2575 c0 -8 7 -15 15 -15 8 0 15 7 15 15 0 8 -7 15 -15 15 -8 0
-15 -7 -15 -15z"/>
<path d="M11935 2581 c-7 -12 12 -24 25 -16 11 7 4 25 -10 25 -5 0 -11 -4 -15
-9z"/>
<path d="M2866 2571 c-3 -5 1 -14 8 -20 16 -13 32 2 21 19 -8 12 -22 13 -29 1z"/>
<path d="M10690 2568 c0 -18 41 -58 60 -58 10 0 8 -5 -4 -19 -25 -27 -6 -64
29 -55 30 7 140 -49 163 -84 14 -22 14 -26 -2 -53 -21 -35 -14 -49 23 -49 16
0 48 -9 72 -20 55 -25 97 -26 106 -2 17 46 74 45 101 -2 11 -19 31 -41 44 -50
32 -20 94 -31 102 -17 4 6 16 11 27 11 11 0 19 7 19 16 0 12 -6 15 -26 10 -21
-6 -33 0 -65 32 -21 22 -39 49 -39 61 0 55 -147 157 -306 214 l-72 26 -23 -25
c-38 -41 -79 -28 -79 25 0 21 -34 38 -90 47 -31 5 -40 3 -40 -8z"/>
<path d="M12150 2545 c0 -8 7 -15 15 -15 8 0 15 7 15 15 0 8 -7 15 -15 15 -8
0 -15 -7 -15 -15z"/>
<path d="M9547 2544 c-13 -13 -7 -24 14 -24 11 0 19 5 17 12 -5 14 -22 21 -31
12z"/>
<path d="M10643 2534 c-8 -21 13 -42 28 -27 13 13 5 43 -11 43 -6 0 -13 -7
-17 -16z"/>
<path d="M10850 2535 c0 -8 7 -15 15 -15 8 0 15 7 15 15 0 8 -7 15 -15 15 -8
0 -15 -7 -15 -15z"/>
<path d="M11080 2535 c0 -8 7 -15 15 -15 8 0 15 7 15 15 0 8 -7 15 -15 15 -8
0 -15 -7 -15 -15z"/>
<path d="M11357 2544 c-13 -13 -7 -24 14 -24 11 0 19 5 17 12 -5 14 -22 21
-31 12z"/>
<path d="M6215 2530 c-10 -17 12 -37 25 -24 8 8 6 15 -4 23 -10 9 -16 9 -21 1z"/>
<path d="M9884 2526 c-8 -22 3 -33 18 -18 9 9 9 15 0 24 -9 9 -13 7 -18 -6z"/>
<path d="M11246 2533 c-12 -12 -6 -33 9 -33 8 0 15 6 15 14 0 17 -14 28 -24
19z"/>
<path d="M10457 2514 c-9 -10 2 -24 19 -24 8 0 14 7 14 15 0 15 -21 21 -33 9z"/>
<path d="M10515 2510 c-3 -6 1 -13 10 -16 19 -8 30 0 20 15 -8 14 -22 14 -30
1z"/>
<path d="M12195 2510 c-3 -6 1 -13 10 -16 19 -8 30 0 20 15 -8 14 -22 14 -30
1z"/>
<path d="M12254 2499 c-10 -17 13 -36 27 -22 12 12 4 33 -11 33 -5 0 -12 -5
-16 -11z"/>
<path d="M9575 2480 c-7 -12 12 -50 26 -50 16 0 22 29 9 45 -14 17 -26 19 -35
5z"/>
<path d="M9850 2475 c0 -8 7 -15 15 -15 8 0 15 7 15 15 0 8 -7 15 -15 15 -8 0
-15 -7 -15 -15z"/>
<path d="M11447 2484 c-10 -10 22 -64 38 -64 24 0 26 17 4 44 -21 26 -31 31
-42 20z"/>
<path d="M10595 2470 c-16 -27 42 -42 75 -20 13 9 13 11 0 20 -20 13 -67 13
-75 0z"/>
<path d="M10515 2451 c-7 -12 12 -24 25 -16 11 7 4 25 -10 25 -5 0 -11 -4 -15
-9z"/>
<path d="M8016 2433 c-12 -12 -6 -33 9 -33 8 0 15 6 15 14 0 17 -14 28 -24 19z"/>
<path d="M11401 2416 c-7 -8 -23 -17 -36 -20 -33 -8 -36 -56 -4 -56 24 0 79
51 79 74 0 20 -24 21 -39 2z"/>
<path d="M7472 2388 c5 -15 28 -18 29 -3 0 6 -7 12 -17 13 -10 3 -15 -1 -12
-10z"/>
<path d="M10745 2380 c-3 -6 1 -13 10 -16 19 -8 30 0 20 15 -8 14 -22 14 -30
1z"/>
<path d="M11287 2383 c-12 -11 -8 -23 8 -23 8 0 15 7 15 15 0 16 -12 20 -23 8z"/>
<path d="M10444 2369 c-8 -14 11 -33 25 -25 11 7 4 36 -9 36 -5 0 -12 -5 -16
-11z"/>
<path d="M10804 2369 c-10 -17 13 -36 27 -22 12 12 4 33 -11 33 -5 0 -12 -5
-16 -11z"/>
<path d="M11534 2366 c-8 -22 3 -33 18 -18 9 9 9 15 0 24 -9 9 -13 7 -18 -6z"/>
<path d="M7937 2354 c-9 -10 2 -24 19 -24 8 0 14 7 14 15 0 15 -21 21 -33 9z"/>
<path d="M9793 2349 c-40 -40 6 -67 164 -100 52 -10 98 -21 103 -24 12 -8 40
6 40 19 0 15 -35 49 -67 65 -12 6 -60 18 -105 26 -46 8 -92 17 -103 20 -11 4
-26 0 -32 -6z"/>
<path d="M7465 2340 c-4 -6 -3 -16 3 -22 6 -6 12 -6 17 2 4 6 3 16 -3 22 -6 6
-12 6 -17 -2z"/>
<path d="M11590 2330 c0 -13 5 -20 13 -17 6 2 12 10 12 17 0 7 -6 15 -12 18
-8 2 -13 -5 -13 -18z"/>
<path d="M10071 2326 c-8 -10 -7 -17 3 -26 17 -13 36 -6 36 15 0 19 -27 26
-39 11z"/>
<path d="M10140 2315 c0 -8 7 -15 15 -15 8 0 15 7 15 15 0 8 -7 15 -15 15 -8
0 -15 -7 -15 -15z"/>
<path d="M12267 2324 c-9 -10 2 -24 19 -24 8 0 14 7 14 15 0 15 -21 21 -33 9z"/>
<path d="M10354 2309 c-10 -17 13 -36 27 -22 12 12 4 33 -11 33 -5 0 -12 -5
-16 -11z"/>
<path d="M11645 2310 c-4 -7 -3 -16 3 -22 14 -14 45 -2 40 15 -6 16 -34 21
-43 7z"/>
<path d="M10560 2285 c0 -8 7 -15 15 -15 8 0 15 7 15 15 0 8 -7 15 -15 15 -8
0 -15 -7 -15 -15z"/>
<path d="M10674 2279 c-9 -15 12 -33 30 -26 9 4 16 13 16 22 0 17 -35 21 -46
4z"/>
<path d="M11602 2274 c4 -21 22 -23 26 -1 2 10 -3 17 -13 17 -10 0 -15 -6 -13
-16z"/>
<path d="M12342 2274 c4 -21 22 -23 26 -1 2 10 -3 17 -13 17 -10 0 -15 -6 -13
-16z"/>
<path d="M11724 2265 c-7 -18 3 -35 21 -35 21 0 28 19 15 35 -16 19 -29 19
-36 0z"/>
<path d="M7472 2258 c5 -15 28 -18 29 -3 0 6 -7 12 -17 13 -10 3 -15 -1 -12
-10z"/>
<path d="M10493 2244 c-50 -29 -81 -72 -59 -80 16 -6 46 7 94 43 60 45 31 77
-35 37z"/>
<path d="M10615 2261 c-3 -5 -1 -12 5 -16 12 -7 30 2 30 16 0 12 -27 12 -35 0z"/>
<path d="M10125 2249 c-10 -15 1 -23 20 -15 9 3 13 10 10 16 -8 13 -22 13 -30
-1z"/>
<path d="M10415 2249 c-10 -15 1 -23 20 -15 9 3 13 10 10 16 -8 13 -22 13 -30
-1z"/>
<path d="M10191 2241 c-19 -12 -5 -31 24 -31 32 0 40 16 16 29 -23 13 -22 13
-40 2z"/>
<path d="M10307 2244 c-17 -18 -6 -35 21 -32 16 2 27 9 27 18 0 16 -36 26 -48
14z"/>
<path d="M11687 2224 c-9 -10 2 -24 19 -24 8 0 14 7 14 15 0 15 -21 21 -33 9z"/>
<path d="M10270 2185 c0 -8 7 -15 15 -15 8 0 15 7 15 15 0 8 -7 15 -15 15 -8
0 -15 -7 -15 -15z"/>
<path d="M10354 2179 c-10 -17 13 -36 27 -22 12 12 4 33 -11 33 -5 0 -12 -5
-16 -11z"/>
<path d="M11765 2180 c-8 -13 4 -32 16 -25 12 8 12 35 0 35 -6 0 -13 -4 -16
-10z"/>
<path d="M11445 2150 c-8 -13 4 -32 16 -25 12 8 12 35 0 35 -6 0 -13 -4 -16
-10z"/>
<path d="M11705 2140 c-7 -12 2 -30 16 -30 12 0 12 27 0 35 -5 3 -12 1 -16 -5z"/>
<path d="M10720 2120 c-13 -24 -30 -26 -30 -5 0 8 -6 15 -13 15 -9 0 -14 -14
-14 -45 0 -29 -6 -52 -17 -64 -11 -13 -15 -27 -11 -40 6 -19 3 -20 -27 -15
-18 4 -42 15 -54 25 -11 11 -28 19 -37 19 -24 0 -110 -87 -103 -105 3 -8 1
-15 -3 -15 -5 0 -12 8 -16 18 -6 16 -7 16 -21 -2 -8 -11 -14 -31 -14 -46 0
-43 -24 -64 -143 -123 -141 -70 -182 -105 -173 -148 3 -17 15 -42 26 -56 26
-33 26 -51 0 -28 -15 14 -23 16 -31 8 -8 -8 -3 -29 19 -75 38 -78 61 -161 69
-256 6 -68 8 -73 38 -92 43 -26 56 -25 118 10 30 16 65 30 80 30 35 0 74 16
108 44 16 13 48 27 71 31 24 4 57 12 75 18 25 8 44 7 90 -7 72 -22 83 -30 118
-85 l28 -45 21 25 c11 14 29 36 38 49 17 24 17 23 2 -18 -19 -49 -8 -76 21
-52 12 10 15 10 15 -3 0 -16 57 -109 89 -144 29 -32 69 -40 104 -19 29 16 31
16 57 -9 33 -32 41 -32 68 5 16 21 31 30 51 30 35 0 45 12 60 75 7 27 25 80
41 117 34 78 55 177 65 295 8 100 3 118 -41 139 -19 9 -40 26 -46 38 -6 11
-24 36 -39 54 -16 18 -29 37 -29 43 0 5 -20 28 -44 52 -46 44 -66 92 -66 158
0 21 -9 48 -24 68 -13 18 -29 46 -35 62 -6 16 -16 43 -22 59 -6 17 -17 30 -25
30 -20 0 -33 -31 -54 -129 -19 -90 -44 -161 -56 -161 -15 0 -133 92 -138 108
-6 18 3 59 24 104 10 22 10 30 1 42 -7 9 -16 15 -19 14 -4 -1 -25 4 -47 10
-60 18 -93 15 -105 -8z"/>
<path d="M7560 2095 c0 -8 7 -15 15 -15 8 0 15 7 15 15 0 8 -7 15 -15 15 -8 0
-15 -7 -15 -15z"/>
<path d="M7604 2079 c-10 -17 13 -36 27 -22 12 12 4 33 -11 33 -5 0 -12 -5
-16 -11z"/>
<path d="M7786 2083 c-4 -4 -15 -26 -25 -49 -13 -27 -37 -56 -72 -81 -80 -59
-84 -66 -85 -147 0 -47 -6 -82 -18 -105 -22 -41 -16 -98 17 -156 20 -35 27
-40 56 -38 53 2 77 35 104 143 75 293 78 313 67 367 -11 51 -30 80 -44 66z"/>
<path d="M7647 2034 c-9 -10 2 -24 19 -24 8 0 14 7 14 15 0 15 -21 21 -33 9z"/>
<path d="M10890 2025 c0 -10 7 -15 18 -13 21 4 19 22 -2 26 -10 2 -16 -3 -16
-13z"/>
<path d="M12692 2013 c2 -10 8 -18 13 -19 6 0 18 -4 28 -9 22 -9 32 -1 24 19
-4 9 -13 13 -21 10 -8 -3 -17 -1 -21 5 -10 17 -27 13 -23 -6z"/>
<path d="M11920 1955 c0 -8 7 -15 15 -15 8 0 15 7 15 15 0 8 -7 15 -15 15 -8
0 -15 -7 -15 -15z"/>
<path d="M7964 1919 c-10 -17 13 -36 27 -22 12 12 4 33 -11 33 -5 0 -12 -5
-16 -11z"/>
<path d="M11935 1901 c-7 -12 12 -24 25 -16 11 7 4 25 -10 25 -5 0 -11 -4 -15
-9z"/>
<path d="M12370 1895 c0 -8 7 -15 15 -15 8 0 15 7 15 15 0 8 -7 15 -15 15 -8
0 -15 -7 -15 -15z"/>
<path d="M11977 1874 c-9 -10 2 -24 19 -24 8 0 14 7 14 15 0 15 -21 21 -33 9z"/>
<path d="M742 1856 c1 -10 8 -17 13 -17 15 1 12 24 -3 29 -9 3 -13 -2 -10 -12z"/>
<path d="M12324 1859 c-8 -14 18 -31 30 -19 9 9 0 30 -14 30 -5 0 -12 -5 -16
-11z"/>
<path d="M780 1825 c0 -8 7 -15 15 -15 8 0 15 7 15 15 0 8 -7 15 -15 15 -8 0
-15 -7 -15 -15z"/>
<path d="M12586 1762 c-2 -4 -1 -14 4 -22 7 -11 12 -12 21 -3 6 6 8 16 5 22
-8 13 -23 14 -30 3z"/>
<path d="M1186 1731 c-3 -5 1 -14 8 -20 16 -13 32 2 21 19 -8 12 -22 13 -29 1z"/>
<path d="M8072 1726 c1 -10 8 -17 13 -17 15 1 12 24 -3 29 -9 3 -13 -2 -10
-12z"/>
<path d="M11865 1730 c-3 -5 -3 -15 0 -20 10 -16 65 -41 75 -35 19 12 10 35
-20 50 -34 18 -46 19 -55 5z"/>
<path d="M8016 1723 c-12 -12 -6 -33 9 -33 8 0 15 6 15 14 0 17 -14 28 -24 19z"/>
<path d="M12545 1720 c-10 -17 12 -37 25 -24 8 8 6 15 -4 23 -10 9 -16 9 -21
1z"/>
<path d="M1045 1699 c-10 -15 1 -23 20 -15 9 3 13 10 10 16 -8 13 -22 13 -30
-1z"/>
<path d="M1270 1635 c0 -10 7 -15 18 -13 21 4 19 22 -2 26 -10 2 -16 -3 -16
-13z"/>
<path d="M1475 1581 c-3 -5 -1 -12 5 -16 12 -7 30 2 30 16 0 12 -27 12 -35 0z"/>
<path d="M1614 1556 c-8 -22 3 -33 18 -18 9 9 9 15 0 24 -9 9 -13 7 -18 -6z"/>
<path d="M2320 1490 c0 -13 5 -20 13 -17 6 2 12 10 12 17 0 7 -6 15 -12 18 -8
2 -13 -5 -13 -18z"/>
<path d="M2145 1470 c-11 -17 5 -32 21 -19 7 6 11 15 8 20 -7 12 -21 11 -29
-1z"/>
<path d="M3217 1154 c-13 -13 -7 -24 14 -24 11 0 19 5 17 12 -5 14 -22 21 -31
12z"/>
<path d="M12150 1098 c0 -7 14 -35 30 -63 33 -55 37 -87 15 -125 -19 -33 -19
-35 9 -48 14 -6 26 -22 29 -42 9 -42 36 -37 59 10 10 19 24 40 33 46 18 14 37
63 31 81 -3 7 -15 13 -26 13 -13 0 -24 10 -30 26 -9 22 -13 24 -26 13 -13 -10
-17 -10 -25 2 -5 8 -9 17 -9 21 0 4 -14 23 -31 43 -31 35 -59 46 -59 23z"/>
<path d="M10877 1064 c-9 -10 2 -24 19 -24 8 0 14 7 14 15 0 15 -21 21 -33 9z"/>
<path d="M11270 865 c0 -8 7 -15 15 -15 8 0 15 7 15 15 0 8 -7 15 -15 15 -8 0
-15 -7 -15 -15z"/>
<path d="M11142 856 c1 -10 8 -17 13 -17 15 1 12 24 -3 29 -9 3 -13 -2 -10
-12z"/>
<path d="M11182 822 c-11 -7 -11 -18 -2 -53 14 -53 36 -79 65 -79 31 0 51 20
65 64 10 31 10 41 -2 52 -17 17 -108 29 -126 16z"/>
<path d="M12126 789 c-14 -17 -26 -34 -26 -39 0 -5 -20 -28 -45 -51 -50 -47
-105 -127 -105 -152 0 -11 8 -16 23 -16 12 1 35 -3 50 -10 16 -6 34 -8 40 -5
33 19 57 50 57 74 0 15 13 44 30 65 17 21 30 43 30 50 0 6 9 20 20 30 24 22
26 48 4 69 -24 24 -50 19 -78 -15z"/>
<path d="M3373 754 c-8 -21 13 -42 28 -27 13 13 5 43 -11 43 -6 0 -13 -7 -17
-16z"/>
<path d="M11995 500 c-7 -12 2 -30 16 -30 5 0 9 9 9 20 0 21 -15 27 -25 10z"/>
<path d="M3345 481 c-3 -5 -1 -12 5 -16 12 -7 30 2 30 16 0 12 -27 12 -35 0z"/>
<path d="M8473 434 c-3 -9 3 -24 15 -37 21 -20 22 -20 42 -2 25 23 26 35 1 35
-11 0 -23 5 -26 10 -9 15 -25 12 -32 -6z"/>
<path d="M3345 411 c-7 -12 12 -24 25 -16 11 7 4 25 -10 25 -5 0 -11 -4 -15
-9z"/>
<path d="M11904 369 c-10 -17 13 -36 27 -22 12 12 4 33 -11 33 -5 0 -12 -5
-16 -11z"/>
<path d="M3940 302 c0 -10 -5 -23 -12 -30 -9 -9 -9 -15 -1 -23 14 -14 36 -2
29 17 -3 7 -1 16 4 19 16 10 12 35 -5 35 -8 0 -15 -8 -15 -18z"/>
<path d="M3870 295 c-10 -11 -10 -19 -2 -27 15 -15 44 -2 40 19 -4 23 -22 27
-38 8z"/>
<path d="M3390 237 c0 -8 9 -22 20 -32 11 -10 17 -22 14 -26 -3 -5 2 -9 10 -9
18 0 22 25 6 35 -6 4 -7 11 -4 17 7 11 -13 28 -33 28 -7 0 -13 -6 -13 -13z"/>
<path d="M8630 215 c0 -8 7 -15 15 -15 8 0 15 7 15 15 0 8 -7 15 -15 15 -8 0
-15 -7 -15 -15z"/>
<path d="M4680 161 c0 -14 41 -41 62 -41 26 0 33 21 13 37 -21 15 -75 18 -75
4z"/>
<path d="M3725 140 c-7 -12 2 -30 16 -30 12 0 12 27 0 35 -5 3 -12 1 -16 -5z"/>
<path d="M3550 70 c0 -13 7 -20 20 -20 13 0 20 7 20 20 0 13 -7 20 -20 20 -13
0 -20 -7 -20 -20z"/>
</g>
</svg>
